<svg width="297" height="420" viewBox="0 0 297 420" fill="none" xmlns="http://www.w3.org/2000/svg">
<g id="QR-TEMPLATE">
<rect width="297" height="420" fill="#212021"/>
<g id="SPOONS">
<path id="Vector" d="M19.1182 7.03776C19.6099 7.24881 19.9804 8.4448 20.1967 10.5343C20.436 12.8489 20.5082 16.0077 20.4623 22.5645C20.4459 24.8087 20.4229 26.8032 20.4131 26.9967C20.3639 27.8515 20.2688 28.4319 19.9902 29.6173C19.7509 30.6269 19.7312 30.8696 19.7542 32.2028C19.8328 36.2269 19.9902 38.2988 20.5606 42.9315C20.9638 46.2099 20.9999 46.5863 20.9999 47.8034C21.0032 48.9572 20.9311 49.5833 20.7081 50.431C20.577 50.9165 20.4492 51.1627 20.1869 51.4441C19.8197 51.8346 19.4591 51.9964 18.9379 51.9999C18.2527 52.0069 17.62 51.62 17.3217 51.0185C17.2004 50.7652 17.0791 50.2587 16.9808 49.5798C16.9251 49.1788 16.9119 48.9255 16.9119 48.2079C16.9087 47.121 16.9382 46.7903 17.2955 43.7405C17.6463 40.7646 17.8036 38.9038 17.9216 36.3536C17.9774 35.1259 18.0364 32.755 18.0364 31.7666C18.0364 30.7817 18.0069 30.6796 17.3414 29.1284C16.7513 27.746 16.5874 27.3133 16.3841 26.557C16.2366 26.0223 16.1153 25.3821 16.053 24.7982C15.9645 24.0173 15.9908 21.3228 16.1022 19.1348C16.3612 14.1855 16.9414 10.3127 17.7086 8.39556C18.1151 7.386 18.6724 6.84781 19.1182 7.03776Z" fill="white"/>
<path id="Vector_2" d="M28.8614 9.05798C28.3262 9.17442 27.735 9.54037 27.1878 10.0893C25.65 11.6238 24.4796 14.5515 24.1281 17.7245C23.7726 20.9433 24.1321 22.5818 25.5182 24.029C25.9815 24.5114 26.4009 24.8399 27.3076 25.4346C27.9267 25.8422 28.2183 26.0958 28.3182 26.3204C28.3861 26.466 28.3901 26.5907 28.3621 27.9547C28.2782 32.5666 28.0865 35.0785 27.3595 41.1168C27.1758 42.6471 26.9961 44.2108 26.9601 44.5892C26.7684 46.7267 26.7923 48.0949 27.04 49.4007C27.2437 50.4487 27.4514 50.9519 27.8548 51.3719C28.2822 51.8127 28.7296 51.9999 29.3966 51.9999C30.1715 52.0082 30.9065 51.5965 31.282 50.9394C31.6614 50.2865 31.8851 48.6064 31.8372 46.7517C31.8052 45.4584 31.7293 44.5352 31.3578 41.0336C30.8785 36.534 30.7427 34.8996 30.6149 32.3213C30.5949 31.8514 30.567 31.3191 30.555 31.1361C30.543 30.9531 30.515 29.8428 30.4951 28.67C30.4631 27.1396 30.4631 26.4909 30.4951 26.3703C30.5829 26.0418 30.8825 25.7798 31.7932 25.2516C32.8397 24.6486 33.5068 24.1205 33.9262 23.5716C34.749 22.4986 35.0526 21.3009 34.9927 19.388C34.9208 17.0508 34.5253 15.0131 33.7904 13.2124C32.624 10.3513 30.6189 8.65875 28.8614 9.05798Z" fill="white"/>
<path id="Vector_3" d="M41.0936 22.0404C40.753 22.1217 40.3768 22.377 40.0286 22.76C39.05 23.8306 38.3052 25.8731 38.0815 28.0869C37.8553 30.3325 38.0841 31.4757 38.9661 32.4854C39.261 32.8219 39.5278 33.0511 40.1048 33.466C40.4988 33.7503 40.6844 33.9273 40.7479 34.084C40.7911 34.1855 40.7937 34.2726 40.7759 35.2242C40.7225 38.4418 40.6005 40.1943 40.1379 44.407C40.021 45.4747 39.9066 46.5657 39.8837 46.8297C39.7617 48.321 39.7769 49.2755 39.9345 50.1866C40.0642 50.9177 40.1963 51.2688 40.4531 51.5618C40.7251 51.8694 41.0097 51.9999 41.4342 51.9999C41.9273 52.0057 42.395 51.7185 42.634 51.2601C42.8754 50.8046 43.0178 49.6324 42.9873 48.3384C42.967 47.4361 42.9187 46.792 42.6823 44.349C42.3772 41.2097 42.2908 40.0695 42.2095 38.2707C42.1968 37.9428 42.179 37.5714 42.1714 37.4438C42.1637 37.3161 42.1459 36.5415 42.1332 35.7233C42.1129 34.6556 42.1129 34.203 42.1332 34.1188C42.1891 33.8896 42.3798 33.7068 42.9593 33.3384C43.6253 32.9177 44.0498 32.5492 44.3167 32.1662C44.8403 31.4176 45.0335 30.5821 44.9953 29.2474C44.9496 27.6169 44.6979 26.1952 44.2302 24.9389C43.488 22.9428 42.212 21.7619 41.0936 22.0404Z" fill="white"/>
<path id="Vector_4" d="M6.87975 7.1372C6.45102 8.00908 5.8901 15.9888 6.01872 19.3922C6.05445 20.3836 6.09018 20.7288 6.20093 21.1359C6.36885 21.76 6.59036 22.1317 7.37636 23.132C8.20523 24.1853 8.44818 24.65 8.55536 25.367C8.63039 25.8671 8.56608 29.4122 8.43031 32.1163C8.29455 34.7718 8.13378 36.666 7.6979 40.5917C7.29061 44.2695 7.25131 44.774 7.25131 46.478C7.25489 48.1376 7.31562 48.8148 7.59429 50.1602C7.84439 51.3817 8.60538 52.081 9.58788 51.9925C10.1309 51.9438 10.624 51.6606 10.9669 51.2047C11.1992 50.8949 11.3171 50.6072 11.4278 50.0629C11.6672 48.8856 11.7529 47.7791 11.7244 46.1903C11.6958 44.6723 11.6529 44.1412 11.2706 40.3261C10.6918 34.5726 10.4953 31.2312 10.4739 26.8275C10.4668 25.4732 10.4739 25.2741 10.5311 25.0483C10.6454 24.5925 10.8276 24.2694 11.3135 23.6763C12.0924 22.7204 12.3675 22.2866 12.6497 21.5431C12.9534 20.7421 13.0034 20.2154 12.9998 17.7989C12.9963 15.0195 12.7926 11.6028 12.4639 8.77031C12.1567 6.13697 12.0245 6.39809 11.8959 9.85463C11.8673 10.6557 11.828 11.7931 11.8065 12.3773C11.7208 14.7053 11.6208 16.1038 11.4814 16.7987C11.4028 17.2059 11.3349 17.3563 11.2349 17.3563C10.9562 17.3563 10.8205 15.9534 10.7347 12.2224C10.6383 7.96482 10.5775 7 10.4096 7C10.3024 7 10.2238 7.86745 10.1667 9.65547C10.0166 14.2184 9.99159 14.8248 9.89156 15.8073C9.77008 17.0155 9.60217 17.5201 9.38423 17.3298C9.22346 17.1926 9.09841 16.5022 9.01981 15.2983C9.00195 15.0062 8.96979 13.4838 8.94836 11.9126C8.89834 8.02678 8.85189 7 8.71613 7C8.55893 7 8.46604 8.03121 8.32313 11.4037C8.14092 15.5949 8.00873 17.0155 7.76579 17.3165L7.69076 17.4094L7.60501 17.3076C7.32634 16.9846 7.22988 15.4975 7.16199 10.4964C7.12984 8.1507 7.09411 7.1549 7.03338 7.03983C6.99765 6.96459 6.94763 7 6.87975 7.1372Z" fill="white"/>
</g>
<g id="GLASSES">
<g id="Group 2">
<g id="Group">
<g id="Group_2">
<g id="Vector_5">
<path d="M265.883 30.7277C265.961 30.3077 266 29.8779 266 29.4502C266 28.2413 265.263 23.6745 264.254 21.3178C264.156 21.0902 263.932 20.9425 263.685 20.9425H254.315C254.068 20.9425 253.844 21.0902 253.746 21.3177C252.737 23.6744 252 28.2411 252 29.4501C252 29.878 252.039 30.3077 252.117 30.7276C252.628 33.4985 254.734 35.6341 257.382 36.2613V47.2011C257.382 48.3388 256.457 49.2644 255.319 49.2644H254.478C253.723 49.2644 253.11 49.878 253.11 50.6321C253.11 51.3863 253.724 52 254.478 52H263.633C264.388 52 265.001 51.3864 265.001 50.6323C265.001 49.8781 264.387 49.2645 263.633 49.2645H262.792C261.654 49.2645 260.728 48.3389 260.728 47.2012V36.2343C263.325 35.5743 265.379 33.4598 265.883 30.7277ZM253.237 29.4501C253.237 28.4084 253.874 24.4519 254.733 22.1799H263.267C264.126 24.4519 264.763 28.4084 264.763 29.4501C264.763 29.6324 264.754 29.8149 264.737 29.9967H253.263C253.246 29.815 253.237 29.6324 253.237 29.4501ZM262.792 50.5019H263.633C263.705 50.5019 263.764 50.5604 263.764 50.6323C263.764 50.7042 263.705 50.7627 263.633 50.7627H254.478C254.406 50.7627 254.347 50.7042 254.347 50.6323C254.347 50.5604 254.406 50.5019 254.478 50.5019H255.319C257.139 50.5019 258.62 49.0212 258.62 47.2012V36.4395C258.746 36.4463 258.872 36.4501 259 36.4501C259.165 36.4501 259.329 36.4442 259.491 36.4328V47.2011C259.491 49.0213 260.972 50.5019 262.792 50.5019ZM259 35.2128C256.475 35.2128 254.278 33.5786 253.518 31.2341H264.482C263.722 33.5787 261.525 35.2128 259 35.2128Z" fill="white"/>
<path d="M259 35.2128C256.475 35.2128 254.278 33.5786 253.518 31.2341H264.482C263.722 33.5787 261.525 35.2128 259 35.2128Z" fill="white"/>
<path d="M262.792 50.5019H263.633C263.705 50.5019 263.764 50.5604 263.764 50.6323C263.764 50.7042 263.705 50.7627 263.633 50.7627H254.478C254.406 50.7627 254.347 50.7042 254.347 50.6323C254.347 50.5604 254.406 50.5019 254.478 50.5019H255.319C257.139 50.5019 258.62 49.0212 258.62 47.2012V36.4395C258.746 36.4463 258.872 36.4501 259 36.4501C259.165 36.4501 259.329 36.4442 259.491 36.4328V47.2011C259.491 49.0213 260.972 50.5019 262.792 50.5019Z" fill="white"/>
</g>
</g>
</g>
<g id="Group_3">
<g id="Group_4">
<path id="Vector_6" d="M262.984 23.9853C262.907 23.7237 262.828 23.4817 262.749 23.2662C262.631 22.9454 262.276 22.7808 261.955 22.8985C261.634 23.0161 261.47 23.3716 261.587 23.6924C261.657 23.8823 261.727 24.098 261.797 24.3336C261.876 24.6033 262.122 24.7783 262.39 24.7783C262.448 24.7783 262.506 24.7701 262.564 24.7531C262.892 24.6568 263.08 24.3131 262.984 23.9853Z" fill="white"/>
</g>
</g>
<g id="Group_5">
<g id="Group_6">
<path id="Vector_7" d="M263.443 25.9118C263.378 25.5764 263.053 25.3576 262.718 25.4225C262.382 25.4877 262.163 25.8125 262.228 26.1479C262.42 27.1343 262.521 27.9616 262.521 28.269C262.521 28.6106 262.798 28.8876 263.139 28.8876C263.481 28.8876 263.758 28.6106 263.758 28.269C263.758 27.8277 263.631 26.8805 263.443 25.9118Z" fill="white"/>
</g>
</g>
</g>
<g id="Vector_8">
<path d="M291 18.3935C291 15.9217 289.024 13.9107 286.595 13.9107C284.493 13.9107 282.732 15.417 282.295 17.4243H276.584L272.809 9.54473C272.579 9.06365 272.009 8.86362 271.536 9.09825C271.063 9.33278 270.867 9.9129 271.097 10.3941L274.465 17.4244H272.065C271.706 17.4244 271.377 17.6299 271.215 17.9557C271.053 18.2816 271.085 18.6725 271.297 18.9671C272.881 21.1626 272.727 23.0771 271.853 26.0564C271.011 28.9266 270.473 31.3381 271.81 34.039C273 36.7219 275.49 38.5485 278.319 38.8873C278.328 42.5762 278.328 46.3258 278.32 50.0617H274.611C274.085 50.0617 273.659 50.4958 273.659 51.0309C273.659 51.5661 274.085 52 274.611 52H279.267C279.268 52 279.269 52 279.27 52H283.937C284.463 52 284.89 51.5661 284.89 51.0309C284.89 50.4958 284.463 50.0617 283.937 50.0617H280.224C280.233 46.326 280.233 42.5767 280.224 38.8879C283.055 38.5506 285.547 36.7242 286.737 34.0412C288.076 31.3396 287.538 28.9274 286.696 26.0563C286.338 24.8372 286.101 23.7966 286.054 22.8418C286.232 22.864 286.413 22.8763 286.595 22.8763C289.024 22.8762 291 20.8653 291 18.3935ZM286.595 15.849C287.974 15.849 289.095 16.9904 289.095 18.3935C289.095 19.7966 287.974 20.9379 286.595 20.9379C286.483 20.9379 286.373 20.9297 286.265 20.9152C286.454 20.2669 286.773 19.6296 287.251 18.9669C287.463 18.6724 287.495 18.2814 287.333 17.9555C287.171 17.6297 286.842 17.4243 286.483 17.4243H284.284C284.659 16.5007 285.554 15.849 286.595 15.849ZM283.141 19.3626C283.141 19.3626 283.142 19.3627 283.142 19.3627C283.143 19.3627 283.144 19.3626 283.144 19.3626H284.811C283.714 21.7739 284.133 24.0318 284.782 26.3035C284.326 25.8976 283.7 25.4173 282.611 25.4173C281.731 25.4173 281.153 25.7317 280.723 26.0668L277.512 19.3626H283.141ZM275.393 19.3626L279.008 26.9086C278.719 26.8504 278.539 26.6884 278.246 26.4219C277.78 25.998 277.142 25.4173 275.945 25.4173C274.847 25.4173 274.22 25.9056 273.764 26.3137C274.414 24.0382 274.836 21.7772 273.737 19.3625L275.393 19.3626ZM285.028 33.1848C285.021 33.1988 285.015 33.2128 285.009 33.227C283.997 35.523 281.746 37.0067 279.274 37.0067C276.801 37.0067 274.55 35.5223 273.538 33.2251C273.532 33.211 273.526 33.1969 273.519 33.183C272.8 31.7407 272.785 30.3975 273.1 28.8355C273.99 28.7042 274.515 28.229 274.913 27.8669C275.288 27.5265 275.475 27.3555 275.945 27.3555C276.415 27.3555 276.603 27.5265 276.977 27.8669C277.443 28.2909 278.081 28.8715 279.278 28.8715C279.986 28.8715 280.498 28.668 280.895 28.4144C280.896 28.4136 280.897 28.4128 280.898 28.412C281.171 28.2373 281.39 28.0393 281.58 27.8669C281.954 27.5265 282.142 27.3556 282.611 27.3556C283.081 27.3556 283.269 27.5266 283.643 27.867C284.04 28.2278 284.563 28.7009 285.448 28.8341C285.763 30.3975 285.748 31.7416 285.028 33.1848Z" fill="white"/>
<path d="M285.028 33.1848C285.021 33.1988 285.015 33.2128 285.009 33.227C283.997 35.523 281.746 37.0067 279.274 37.0067C276.801 37.0067 274.55 35.5223 273.538 33.2251C273.532 33.211 273.526 33.1969 273.519 33.183C272.8 31.7407 272.785 30.3975 273.1 28.8355C273.99 28.7042 274.515 28.229 274.913 27.8669C275.288 27.5265 275.475 27.3555 275.945 27.3555C276.415 27.3555 276.603 27.5265 276.977 27.8669C277.443 28.2909 278.081 28.8715 279.278 28.8715C279.986 28.8715 280.498 28.668 280.895 28.4144L280.898 28.412C281.171 28.2373 281.39 28.0393 281.58 27.8669C281.954 27.5265 282.142 27.3556 282.611 27.3556C283.081 27.3556 283.269 27.5266 283.643 27.867C284.04 28.2278 284.563 28.7009 285.448 28.8341C285.763 30.3975 285.748 31.7416 285.028 33.1848Z" fill="white"/>
</g>
</g>
<g id="QR-PLACE">
<g id="QRCODE-CONTAINER">
<rect id="Rectangle 1" x="94.5" y="179.5" width="109" height="109" stroke="white"/>
<path id="Rectangle 2" d="M94 215.667H204V252.333H94V215.667Z" fill="#212021"/>
<path id="Rectangle 3" d="M167.333 179L167.333 289L130.667 289L130.667 179L167.333 179Z" fill="#212021"/>
</g>
<path id="SCAN" d="M130.808 161.632C130.808 162.656 130.544 163.512 130.016 164.2C129.504 164.872 128.808 165.384 127.928 165.736C127.048 166.072 126.064 166.24 124.976 166.24C123.904 166.24 123 166.168 122.264 166.024C121.544 165.88 120.896 165.712 120.32 165.52V164.536C120.944 164.776 121.648 164.976 122.432 165.136C123.216 165.296 124.088 165.376 125.048 165.376C125.944 165.376 126.752 165.248 127.472 164.992C128.192 164.72 128.768 164.312 129.2 163.768C129.632 163.208 129.848 162.504 129.848 161.656C129.848 160.904 129.664 160.296 129.296 159.832C128.944 159.368 128.424 158.976 127.736 158.656C127.048 158.32 126.208 157.984 125.216 157.648C124.288 157.344 123.464 157.008 122.744 156.64C122.04 156.272 121.488 155.8 121.088 155.224C120.704 154.648 120.512 153.888 120.512 152.944C120.512 152 120.752 151.208 121.232 150.568C121.728 149.928 122.384 149.448 123.2 149.128C124.016 148.792 124.936 148.624 125.96 148.624C127.544 148.624 129.016 148.928 130.376 149.536L130.016 150.352C129.312 150.032 128.616 149.808 127.928 149.68C127.256 149.552 126.584 149.488 125.912 149.488C125.096 149.488 124.352 149.616 123.68 149.872C123.008 150.112 122.472 150.488 122.072 151C121.672 151.496 121.472 152.136 121.472 152.92C121.472 153.736 121.656 154.384 122.024 154.864C122.392 155.344 122.896 155.736 123.536 156.04C124.192 156.328 124.944 156.616 125.792 156.904C126.8 157.224 127.68 157.576 128.432 157.96C129.184 158.328 129.768 158.8 130.184 159.376C130.6 159.936 130.808 160.688 130.808 161.632ZM141.775 149.488C140.239 149.488 138.927 149.824 137.839 150.496C136.767 151.168 135.943 152.104 135.367 153.304C134.807 154.488 134.527 155.848 134.527 157.384C134.527 158.984 134.783 160.384 135.295 161.584C135.807 162.784 136.567 163.72 137.575 164.392C138.599 165.048 139.871 165.376 141.391 165.376C142.287 165.376 143.087 165.312 143.791 165.184C144.511 165.056 145.167 164.888 145.759 164.68V165.496C145.199 165.72 144.559 165.896 143.839 166.024C143.119 166.168 142.287 166.24 141.343 166.24C139.631 166.24 138.199 165.872 137.047 165.136C135.895 164.4 135.023 163.368 134.431 162.04C133.855 160.696 133.567 159.136 133.567 157.36C133.567 155.696 133.887 154.208 134.527 152.896C135.183 151.568 136.119 150.528 137.335 149.776C138.567 149.008 140.047 148.624 141.775 148.624C143.375 148.624 144.831 148.928 146.143 149.536L145.759 150.376C145.119 150.04 144.463 149.808 143.791 149.68C143.119 149.552 142.447 149.488 141.775 149.488ZM160.043 166L157.643 159.736H150.323L147.875 166H146.891L153.635 148.816H154.523L161.027 166H160.043ZM154.811 152.128C154.731 151.856 154.619 151.528 154.475 151.144C154.331 150.744 154.187 150.336 154.043 149.92C153.931 150.304 153.803 150.696 153.659 151.096C153.515 151.48 153.379 151.824 153.251 152.128L150.659 158.872H157.307L154.811 152.128ZM175.639 166H174.775L164.383 150.592H164.335C164.351 151.248 164.359 151.888 164.359 152.512C164.375 153.12 164.383 153.768 164.383 154.456V166H163.495V148.864H164.383L174.727 164.224H174.775C174.775 163.68 174.767 163.064 174.751 162.376C174.735 161.688 174.727 161.048 174.727 160.456V148.864H175.639V166Z" fill="white"/>
<path id="TO VIEW OUR MENU" d="M120.191 321H119.489V308.796H115.277V308.148H124.421V308.796H120.191V321ZM136.645 314.556C136.645 315.852 136.435 316.998 136.015 317.994C135.595 318.99 134.959 319.77 134.107 320.334C133.267 320.898 132.211 321.18 130.939 321.18C129.679 321.18 128.623 320.898 127.771 320.334C126.931 319.77 126.301 318.99 125.881 317.994C125.461 316.998 125.251 315.846 125.251 314.538C125.251 313.242 125.467 312.102 125.899 311.118C126.343 310.122 126.997 309.348 127.861 308.796C128.725 308.232 129.781 307.95 131.029 307.95C132.829 307.95 134.215 308.538 135.187 309.714C136.159 310.878 136.645 312.492 136.645 314.556ZM125.971 314.538C125.971 315.714 126.151 316.752 126.511 317.652C126.871 318.552 127.417 319.26 128.149 319.776C128.893 320.28 129.829 320.532 130.957 320.532C132.085 320.532 133.015 320.28 133.747 319.776C134.479 319.272 135.019 318.576 135.367 317.688C135.727 316.788 135.907 315.744 135.907 314.556C135.907 312.672 135.487 311.208 134.647 310.164C133.819 309.12 132.613 308.598 131.029 308.598C129.889 308.598 128.947 308.85 128.203 309.354C127.459 309.858 126.901 310.56 126.529 311.46C126.157 312.348 125.971 313.374 125.971 314.538ZM152.729 308.148L147.923 321H147.239L142.451 308.148H143.189L146.879 318.012C147.023 318.396 147.155 318.768 147.275 319.128C147.395 319.476 147.503 319.8 147.599 320.1C147.683 319.8 147.779 319.488 147.887 319.164C148.007 318.828 148.145 318.444 148.301 318.012L151.973 308.148H152.729ZM157.018 321H153.76V320.514L155.038 320.406V308.76L153.76 308.616V308.148H157.018V308.616L155.74 308.76V320.406L157.018 320.514V321ZM166.845 321H159.861V308.148H166.845V308.796H160.563V313.908H166.485V314.556H160.563V320.352H166.845V321ZM183.329 308.148L179.783 321H179.117L176.291 310.938C176.195 310.566 176.105 310.242 176.021 309.966C175.937 309.678 175.865 309.384 175.805 309.084C175.757 309.36 175.703 309.618 175.643 309.858C175.595 310.098 175.529 310.356 175.445 310.632L172.619 321H171.953L168.461 308.148H169.181L171.719 317.544C171.839 318.012 171.947 318.426 172.043 318.786C172.139 319.134 172.223 319.494 172.295 319.866C172.379 319.494 172.463 319.128 172.547 318.768C172.643 318.396 172.757 317.976 172.889 317.508L175.481 308.148H176.183L178.847 317.562C178.991 318.054 179.105 318.48 179.189 318.84C179.285 319.188 179.369 319.548 179.441 319.92C179.513 319.536 179.585 319.17 179.657 318.822C179.741 318.474 179.849 318.054 179.981 317.562L182.591 308.148H183.329ZM115.692 336.556C115.692 337.852 115.482 338.998 115.062 339.994C114.642 340.99 114.006 341.77 113.154 342.334C112.314 342.898 111.258 343.18 109.986 343.18C108.726 343.18 107.67 342.898 106.818 342.334C105.978 341.77 105.348 340.99 104.928 339.994C104.508 338.998 104.298 337.846 104.298 336.538C104.298 335.242 104.514 334.102 104.946 333.118C105.39 332.122 106.044 331.348 106.908 330.796C107.772 330.232 108.828 329.95 110.076 329.95C111.876 329.95 113.262 330.538 114.234 331.714C115.206 332.878 115.692 334.492 115.692 336.556ZM105.018 336.538C105.018 337.714 105.198 338.752 105.558 339.652C105.918 340.552 106.464 341.26 107.196 341.776C107.94 342.28 108.876 342.532 110.004 342.532C111.132 342.532 112.062 342.28 112.794 341.776C113.526 341.272 114.066 340.576 114.414 339.688C114.774 338.788 114.954 337.744 114.954 336.556C114.954 334.672 114.534 333.208 113.694 332.164C112.866 331.12 111.66 330.598 110.076 330.598C108.936 330.598 107.994 330.85 107.25 331.354C106.506 331.858 105.948 332.56 105.576 333.46C105.204 334.348 105.018 335.374 105.018 336.538ZM128.018 338.464C128.018 340.012 127.586 341.188 126.722 341.992C125.858 342.784 124.694 343.18 123.23 343.18C121.73 343.18 120.566 342.772 119.738 341.956C118.922 341.14 118.514 339.964 118.514 338.428V330.148H119.216V338.41C119.216 339.766 119.564 340.792 120.26 341.488C120.968 342.184 121.97 342.532 123.266 342.532C124.526 342.532 125.516 342.196 126.236 341.524C126.968 340.852 127.334 339.868 127.334 338.572V330.148H128.018V338.464ZM134.549 330.148C136.049 330.148 137.189 330.4 137.969 330.904C138.749 331.396 139.139 332.296 139.139 333.604C139.139 334.576 138.881 335.35 138.365 335.926C137.849 336.49 137.159 336.892 136.295 337.132L139.823 343H138.977L135.593 337.33H132.245V343H131.543V330.148H134.549ZM134.459 330.796H132.245V336.7H134.963C136.007 336.7 136.841 336.436 137.465 335.908C138.089 335.368 138.401 334.606 138.401 333.622C138.401 332.542 138.077 331.804 137.429 331.408C136.781 331 135.791 330.796 134.459 330.796ZM152.292 343L147.45 330.976H147.396C147.408 331.288 147.414 331.594 147.414 331.894C147.426 332.194 147.432 332.518 147.432 332.866V343H146.766V330.148H147.846L152.562 341.848H152.616L157.35 330.148H158.412V343H157.71V332.758C157.71 332.494 157.71 332.212 157.71 331.912C157.722 331.612 157.734 331.306 157.746 330.994H157.71L152.85 343H152.292ZM169.06 343H162.076V330.148H169.06V330.796H162.778V335.908H168.7V336.556H162.778V342.352H169.06V343ZM181.098 343H180.45L172.656 331.444H172.62C172.632 331.936 172.638 332.416 172.638 332.884C172.65 333.34 172.656 333.826 172.656 334.342V343H171.99V330.148H172.656L180.414 341.668H180.45C180.45 341.26 180.444 340.798 180.432 340.282C180.42 339.766 180.414 339.286 180.414 338.842V330.148H181.098V343ZM194.147 338.464C194.147 340.012 193.715 341.188 192.851 341.992C191.987 342.784 190.823 343.18 189.359 343.18C187.859 343.18 186.695 342.772 185.867 341.956C185.051 341.14 184.643 339.964 184.643 338.428V330.148H185.345V338.41C185.345 339.766 185.693 340.792 186.389 341.488C187.097 342.184 188.099 342.532 189.395 342.532C190.655 342.532 191.645 342.196 192.365 341.524C193.097 340.852 193.463 339.868 193.463 338.572V330.148H194.147V338.464Z" fill="white"/>
</g>
<rect id="FOOTER" y="370" width="297" height="50" fill="white"/>
</g>
</svg>
