<svg width="200" height="200" fill="none" xmlns="http://www.w3.org/2000/svg">
  <path fill="#fff" d="M0 0h200v200H0z"/>
  <path d="M21.6572 31.5107c0 .2963-.055.584-.165.8633-.11.2709-.1904.5502-.2412.8379-.1862.2455-.3597.4994-.5205.7617-.1608.2624-.3259.5248-.4951.7871-.1693.2624-.3471.5163-.5333.7618-.1861.2369-.3977.4528-.6347.6474.0084.0085.0127.0254.0127.0508 0 .0508-.0254.0931-.0762.127-.0423.0253-.055.0592-.0381.1015-.2116.2201-.4189.4359-.622.6475-.2032.2116-.3894.4485-.5586.7109-.1862.0931-.3386.2455-.4571.457-.0508 0-.0888.0127-.1142.0381-.0254.017-.0593.0339-.1016.0508-.2708.3301-.5544.6432-.8506.9395-.2962.2962-.6136.567-.9521.8125-.127.0931-.2539.1777-.3809.2539-.1269.0761-.2497.1566-.3682.2412-.0761.0508-.1523.11-.2285.1777-.0677.0677-.1396.1312-.2158.1905-.2454.2115-.4866.3893-.7236.5332-.237.1354-.5163.2285-.8379.2792-.0254.0931-.0381.1947-.0381.3047v.3047c0 .1016-.0042.2074-.0127.3174-.0085.1016-.0381.1989-.0889.292v.0381c0 .0846.0212.165.0635.2412.0423.0846.0635.1693.0635.2539 0 .0592-.0296.11-.0889.1523h.3301c0 .1185.0339.2201.1016.3047.0761.0847.1142.1481.1142.1905 0 .1438-.0169.3004-.0508.4697-.0253.1777-.11.2962-.2539.3555v.0761c0 .0847-.0084.1651-.0254.2412-.0169.0847-.055.1651-.1142.2413h-.1524c-.0423.0084-.0846.0126-.1269.0126-.3555 0-.6729-.0846-.9522-.2539-.0931-.22-.1565-.4485-.1904-.6855-.0254-.2285-.0381-.4613-.0381-.6982 0-.4655.0339-.9268.1016-1.3838.0677-.4571.1227-.9141.165-1.3711l.1905-.3682c.0169-.237.0465-.474.0888-.7109.0423-.2455.0847-.4867.127-.7237.0423-.2369.0762-.4739.1015-.7109.0339-.237.0466-.474.0381-.7109.0677-.1439.1143-.2963.1397-.4571.0338-.1608.0508-.3174.0508-.4697 0-.0846-.0043-.1693-.0127-.2539-.0085-.0846-.0339-.165-.0762-.2412.0508-.0339.0846-.0762.1016-.127.0169-.0507.0423-.0973.0761-.1396.0254-.3301.0466-.6559.0635-.9776.0169-.33.0254-.6559.0254-.9775 0-.1777-.0042-.3512-.0127-.5205-.0085-.1777-.0212-.3555-.0381-.5332-.0085-.0677-.0254-.1481-.0508-.2412-.0169-.0931-.0254-.1651-.0254-.2158 0-.0677.0043-.1355.0127-.2032.0085-.0761.0127-.1523.0127-.2285 0-.0846-.0084-.165-.0254-.2412-.0169-.0846-.0465-.1608-.0888-.2285-.4063.1185-.7702.2793-1.0918.4824-.3216.1947-.6475.4147-.97757.6602-.13541.0931-.28352.2031-.44433.3301-.16081.1269-.31315.2242-.45703.2919-.02539.017-.05502.0297-.08887.0381h-.10156c-.0931 0-.17774-.0042-.25391-.0127-.07617-.0169-.15234-.0254-.22851-.0254-.11849-.1184-.25814-.2115-.41895-.2793-.02539-.1015-.03809-.2115-.03809-.33 0-.1185.0127-.2328.03809-.3428.01693-.11.04655-.2201.08887-.3301.10156-.0338.21159-.0719.33008-.1142.11002-.0424.22005-.0889.33007-.1397.10157-.0592.19467-.1227.2793-.1904.08464-.0762.15234-.1693.20313-.2793.05078.0254.09733.0381.13964.0381.04232 0 .08041-.0043.11426-.0127.03386-.0085.07194-.017.11426-.0254.15234-.0931.30469-.1904.45702-.292.1608-.1016.3259-.1862.4951-.2539.0508-.0169.0804-.0381.0889-.0635.0085-.0254.0085-.0635 0-.1142.1947-.0593.3978-.127.6094-.2032.2116-.0846.3893-.1989.5332-.3427h.2285c.1269-.0931.2624-.1693.4062-.2286.1439-.0592.2878-.1142.4317-.165.1523-.0592.3004-.1185.4443-.1777.1439-.0677.2793-.1524.4063-.2539.0507-.017.0931-.0254.1269-.0254.0423 0 .0889.0084.1397.0254.0846-.0424.1565-.0931.2158-.1524l.2031-.2031c.1354 0 .2582-.0127.3682-.0381.11-.0254.2158-.0592.3174-.1016.1015-.0423.1989-.0888.292-.1396.1015-.0593.2115-.1185.33-.1777.0508.0169.0889.038.1143.0634.0254.017.0677.0254.1269.0254.0847-.0592.1735-.1015.2666-.1269.1016-.0339.2032-.0593.3047-.0762.1016-.0169.1989-.0381.292-.0635.1016-.0254.1905-.0719.2666-.1396.2709 0 .5417-.0043.8125-.0127.2793-.0169.5544-.0254.8252-.0254.3893 0 .7829.0296 1.1807.0889.4062.0592.7702.2073 1.0918.4443.1269.3047.3089.5628.5459.7744.0169.0931.0338.182.0508.2666.0254.0762.055.1524.0888.2285-.0592.127-.0888.2666-.0888.419 0 .1523.0127.3047.038.457.0339.1439.0508.2878.0508.4316Zm-1.1806-.3046c-.0424-.0762-.072-.1609-.0889-.254-.0085-.1015-.0085-.1988 0-.2919-.11-.0847-.1947-.1947-.2539-.3301-.0593-.1354-.1439-.237-.2539-.3047-.0762-.0423-.1862-.0677-.3301-.0762-.1354-.0084-.2497-.0254-.3428-.0508-.11-.0338-.1862-.0677-.2285-.1015-.0338-.0339-.11-.0508-.2285-.0508-.1016 0-.2031.0127-.3047.0381-.1015.0169-.2031.0254-.3047.0254-.0846 0-.165-.017-.2412-.0508-.0762-.0339-.1566-.0508-.2412-.0508-.0931 0-.182.0296-.2666.0889-.0762.0592-.1693.0761-.2793.0508-.0508.0423-.0804.0761-.0889.1015 0 .0254-.0042.0466-.0127.0635-.0084.0085-.0296.0127-.0634.0127h-.1778c-.1777 0-.3597.0254-.5459.0762-.1777.0507-.3385.1354-.4824.2539-.0254-.0085-.0508-.0127-.0762-.0127-.0169-.0085-.038-.0127-.0634-.0127-.1439 0-.2836.0423-.419.1269-.1269.0762-.2708.1143-.4316.1143-.1016.1016-.2243.182-.3682.2412-.1439.0592-.292.1185-.4443.1777-.1439.0508-.2793.1143-.4063.1905-.1269.0677-.2243.1692-.292.3047-.0084.0677.0127.11.0635.1269.0508.0169.0762.0592.0762.127 0 .0592-.0127.1311-.0381.2158-.0169.0846-.0254.1692-.0254.2539 0 .1946.0212.3851.0635.5713.0423.1862.0846.3766.1269.5713-.0423.0254-.0719.0634-.0888.1142-.017.0508-.0466.0889-.0889.1143.1185.3554.1777.7194.1777 1.0918 0 .2962-.0338.5882-.1015.876-.0593.2792-.1016.567-.127.8632v.0127c0 .0508.0169.0847.0508.1016s.0508.0465.0508.0889c0 .0253-.0042.0465-.0127.0634-.0931.5756-.1862 1.1511-.2793 1.7266-.0846.5755-.1566 1.1553-.2158 1.7393h.1015c.2201 0 .4147-.0635.584-.1905.1778-.1354.3259-.2835.4444-.4443h.2031c.6094-.5332 1.1933-1.0833 1.7519-1.6504.5671-.5671 1.1045-1.1764 1.6123-1.8281.0677 0 .1143-.017.1397-.0508.0254-.0339.0677-.0593.1269-.0762.1778-.2454.364-.4866.5586-.7236.1947-.2455.4063-.4782.6348-.6983.0085-.0846.0296-.1608.0635-.2285.0423-.0677.0846-.1312.1269-.1904.0423-.0592.0804-.1227.1143-.1904.0338-.0677.0508-.1481.0508-.2412.0423-.017.0888-.0339.1396-.0508.0508-.0254.0973-.0593.1397-.1016.0169-.0846.0465-.1608.0888-.2285.0423-.0677.0635-.1439.0635-.2285 0-.0339-.0085-.0762-.0254-.127.1354-.0592.2412-.1565.3174-.292.0762-.1354.1354-.2835.1777-.4443.0424-.1693.072-.3385.0889-.5078.0254-.1693.0592-.3174.1016-.4443Zm7.3632 8.5312c0 .0931-.0338.165-.1015.2158-.0677.0423-.1016.1016-.1016.1778 0 .0338.0169.0761.0508.1269-.1185 0-.1989.0381-.2412.1143-.0423.0761-.0846.1608-.127.2539h-.165c-.0423 0-.0762.0084-.1016.0254-.0254.0169-.0507.0423-.0761.0761-.017.0254-.0424.0677-.0762.127-.1608.0338-.3174.0889-.4697.165-.1439.0677-.2878.1439-.4317.2285-.1354.0762-.275.1566-.4189.2413-.1439.0761-.292.1396-.4444.1904-.0761.1269-.1862.2285-.33.3047h-.0381c-.0423.0084-.0804.0042-.1143-.0127-.0254-.0254-.0592-.0381-.1015-.0381-.0254 0-.0424.0042-.0508.0127-.2539.1693-.5375.2539-.8506.2539-.0846 0-.165-.0042-.2412-.0127-.0762-.0169-.1566-.0254-.2412-.0254-.0254 0-.0423.0085-.0508.0254l-.0254.0508c-.0085.0169-.0212.0338-.0381.0508-.0085.0169-.0381.0254-.0889.0254-.0931 0-.1862-.0127-.2793-.0381-.0931-.0254-.1904-.0297-.2919-.0127-.1947-.1101-.3471-.2158-.4571-.3174-.11-.1016-.2116-.2539-.3047-.457-.0423-.0931-.1015-.182-.1777-.2666-.0677-.0847-.1185-.1778-.1523-.2793-.0085-.0339-.0212-.0931-.0381-.1778-.017-.0931-.0339-.1904-.0508-.292-.0169-.1015-.0339-.1989-.0508-.292-.0085-.0931-.0127-.1565-.0127-.1904 0-.1016.0042-.1989.0127-.292.0169-.1015.0339-.2031.0508-.3047.0508-.3216.0846-.6432.1016-.9648.0253-.3301.0973-.6475.2158-.9522-.017-.0931-.0254-.1819-.0254-.2666v-.2793c0-.1608-.0212-.2962-.0635-.4062.0677-.11.1016-.2328.1016-.3682 0-.1523-.0635-.2412-.1905-.2666v-.0381c0-.1777-.0592-.3173-.1777-.4189 0-.2962.0719-.5163.2158-.6602.1524-.1523.3513-.2835.5967-.3935.0339-.0508.0466-.0931.0381-.127.0592.017.1142.0339.165.0508.0508.0169.1016.0254.1524.0254.0846 0 .1608-.0127.2285-.0381.0254.1016.0889.1651.1904.1904.11.017.1989.0424.2666.0762v.1651c0 .2623.0635.512.1905.749-.0339.0677-.0551.1396-.0635.2158-.0085.0762-.0127.1481-.0127.2158 0 .1016.0042.2031.0127.3047.0084.1016.0127.1989.0127.292 0 .1016-.0127.2031-.0381.3047-.0169.1015-.0635.1904-.1397.2666-.0084.11-.0169.237-.0254.3808 0 .1355-.0084.2751-.0253.419-.0085.1439-.0297.2835-.0635.4189-.0339.1355-.0847.2455-.1524.3301-.0084.127-.0169.2582-.0254.3936v.3681c0 .1862.0085.4063.0254.6602.0254.2539.0847.4655.1778.6348.0423.0677.1227.1184.2412.1523.1269.0339.2285.0508.3047.0508.0931 0 .1862-.0127.2793-.0381.1015-.0339.1735-.0889.2158-.165.0508.0084.0846.0338.1015.0761.017.0423.0466.0762.0889.1016.4824-.2031.9649-.3978 1.4473-.584.4824-.1862.9564-.402 1.4219-.6475.0677.0339.1396.0508.2158.0508.0846 0 .1692-.0084.2539-.0254.0846-.0169.1693-.0254.2539-.0254h.0889c.0169.0508.0253.0889.0253.1143Zm9.3565 2.3359c-.0254.1185-.0804.2159-.1651.292-.0761.0677-.1692.1228-.2792.1651-.1101.0423-.2243.0719-.3428.0888-.11.0085-.2116.0127-.3047.0127h-.127c-.0338-.0084-.0719-.0127-.1142-.0127-.0423 0-.0635.0212-.0635.0635 0 .0423-.0212.072-.0635.0889-.0423-.0169-.0846-.0296-.1269-.0381-.0423-.0085-.0847-.0127-.127-.0127-.0592 0-.1185.0042-.1777.0127-.0508.0085-.1016.0127-.1524.0127-.0677 0-.1184-.0085-.1523-.0254-.0254-.0169-.0508-.0339-.0762-.0508-.0169-.0254-.0381-.0508-.0634-.0761-.017-.0254-.0466-.0466-.0889-.0635-.0593-.0254-.11-.0296-.1524-.0127-.0338.0169-.0888-.0085-.165-.0762-.1016-.0846-.1904-.1862-.2666-.3047-.0677-.1269-.1354-.2581-.2031-.3935-.0677-.1355-.1397-.2709-.2158-.4063-.0762-.1354-.1651-.2539-.2666-.3555h-.1016c-.1524 0-.2581.0635-.3174.1905-.0423-.0254-.0846-.055-.1269-.0889-.0424-.0423-.0889-.0762-.1397-.1016-.1947.0593-.3978.1101-.6094.1524-.2116.0423-.4231.0635-.6347.0635h-.1778c-.0507 0-.1058-.0085-.165-.0254-.0846.0338-.1608.0761-.2285.1269-.0677.0423-.1439.0635-.2285.0635-.0508 0-.1101-.0169-.1778-.0508-.0508 0-.0761.0212-.0761.0635.0084.0423-.017.0635-.0762.0635h-.1143c-.1185 0-.237.0042-.3554.0127-.1101.0084-.2243.0127-.3428.0127-.1608 0-.3259-.0212-.4951-.0635-.0424.0254-.0889.0381-.1397.0381-.0338.0169-.0592.0465-.0762.0888-.0169.0339-.0338.0678-.0507.1016-.017.0254-.0424.0508-.0762.0762-.0254.0169-.0635.0211-.1143.0127-.0169.1015-.0592.1819-.1269.2412-.0677.0592-.1016.1481-.1016.2666-.0931.0508-.1693.1142-.2285.1904-.0592.0762-.1185.1566-.1777.2412-.0593.0847-.1228.1651-.1905.2412-.0592.0762-.1354.1355-.2285.1778-.0423.0508-.055.1312-.0381.2412-.0931.0762-.2073.1439-.3427.2031-.1355.0593-.2624.0889-.3809.0889-.2454 0-.4147-.1312-.5078-.3936 0-.0846.0085-.1735.0254-.2666.0084-.1015.0254-.1946.0508-.2793.0254-.0931.0634-.1735.1142-.2412.0508-.0762.1227-.1312.2158-.165 0-.0762-.0253-.127-.0761-.1524-.0508-.0338-.072-.0888-.0635-.165.2285-.11.4274-.2539.5967-.4317.1692-.1777.3216-.3639.457-.5585.1439-.2032.2878-.4063.4316-.6094.1439-.2031.3047-.3851.4825-.5459v-.2666c.2539-.2709.4189-.5755.4951-.9141.0931-.0169.1523-.0592.1777-.1269.0339-.0677.0508-.1481.0508-.2412.0423 0 .0677-.017.0762-.0508.0169-.0423.055-.055.1142-.0381.0762-.2031.1608-.3893.2539-.5586.0931-.1693.1862-.3385.2793-.5078.0931-.1778.1735-.3597.2412-.5459.0762-.1862.1312-.3936.1651-.6221.1185-.0085.1819-.0635.1904-.165.0169-.1101.0339-.2074.0508-.292.1269-.1185.22-.2582.2793-.419.0677-.1608.1269-.3258.1777-.4951.0508-.1777.1058-.3512.1651-.5205.0677-.1777.1608-.3343.2793-.4697v-.0381c0-.0423-.017-.0677-.0508-.0762-.0339-.0169-.0508-.0465-.0508-.0888.0085-.0085.0127-.017.0127-.0254.1016-.0424.1777-.1101.2285-.2032.0508-.1015.127-.1735.2285-.2158.1778.1439.3343.2328.4698.2666.1354.0254.3131.0466.5332.0635.11.1185.1692.2624.1777.4316.0169.1608.0465.3217.0889.4825.0677.2708.1396.5374.2158.7998.0846.2539.1481.5162.1904.7871.0254.1608.0719.3131.1397.457.0677.1439.1142.292.1396.4443.0169.1185.0169.2539 0 .4063-.0169.1439 0 .2708.0508.3809l.0889.2031c.0423.0931.0761.1904.1015.292.0339.1015.0635.2031.0889.3047.0677.2539.1269.5289.1777.8252.0593.2877.1481.5501.2666.7871.0423.0846.1058.1438.1904.1777.0931.0339.1947.0592.3047.0762.1101.0084.2159.0127.3174.0127.11-.0085.2031-.0127.2793-.0127h.127c.0507 0 .1015.0084.1523.0254.0339.0677.0508.1269.0508.1777 0 .1016-.0339.182-.1016.2412s-.1015.127-.1015.2031c0 .0423.0169.0889.0507.1397-.0338-.0085-.0846-.0127-.1523-.0127-.1947 0-.3851.0338-.5713.1015.0677.1439.1566.2666.2666.3682.1185.0931.2412.182.3682.2666.0846-.0677.1735-.1016.2666-.1016.1015 0 .1946.0254.2793.0762.0931.0423.1904.0635.292.0635.0761 0 .1312-.0127.165-.0381.0677.0762.1227.1566.165.2412.0424.0762.0974.1481.1651.2158Zm-3.9736-2.0312c-.017-.1439-.0466-.2455-.0889-.3047-.0339-.0677-.0635-.1481-.0889-.2412-.0338-.1185-.0592-.2454-.0761-.3809-.0085-.1354-.0254-.2666-.0508-.3935-.0593-.2878-.127-.5755-.2032-.8633-.0677-.2878-.1565-.5671-.2666-.8379.0339-.0508.0508-.0973.0508-.1396v-.0381c-.0761-.0847-.1312-.1862-.165-.3047-.0339-.127-.0677-.2497-.1016-.3682-.0254-.1269-.0635-.2412-.1142-.3428-.0424-.11-.1143-.1988-.2159-.2666-.0253.0508-.038.1101-.038.1778 0 .0592.0042.1142.0127.165.0169.0508.0253.1058.0253.1651-.0846.0423-.1481.11-.1904.2031-.0338.0846-.0931.1523-.1777.2031-.0677.2708-.1651.529-.292.7744-.127.237-.2624.474-.4063.711-.1354.2369-.2666.4782-.3935.7236-.127.237-.2285.4866-.3047.749-.11.0762-.1862.1735-.2285.292-.0339.1185-.0508.237-.0508.3555.0762.0423.1608.0677.2539.0761h.292c.0931 0 .182.0085.2666.0254.0846.017.1608.0593.2285.127.11-.0339.2285-.055.3555-.0635.1354-.0169.2454-.055.3301-.1142.1692.0592.3512.0888.5459.0888.1015 0 .1989-.0084.292-.0254.1015-.0169.1988-.0381.2919-.0634.0762.0169.1355.0465.1778.0888.0423.0339.1058.0466.1904.0381.0423-.0338.0677-.0677.0762-.1016.0084-.0423.0296-.0804.0635-.1142Zm13.3935.6728c0 .0847-.0254.1566-.0762.2159-.0423.0507-.0973.0973-.165.1396-.0592.0423-.1227.0804-.1904.1143-.0593.0338-.1143.0761-.1651.1269-.0338.0339-.0592.0762-.0761.127-.0085.0423-.0297.0719-.0635.0888-.0508.0424-.1058.0678-.1651.0762-.0592.0085-.1227.0212-.1904.0381-.0592.0085-.1185.0254-.1777.0508-.0593.0169-.11.055-.1524.1142-.3978.0424-.7913.0974-1.1806.1651-.3809.0677-.7744.1015-1.1807.1015-.0762 0-.1608.0085-.2539.0254-.0846.0085-.165.017-.2412.0254-.1777.017-.3555.0296-.5332.0381-.1693.0085-.3428.0127-.5205.0127-.2455 0-.4909-.0085-.7363-.0254-.2455-.0254-.4867-.0635-.7237-.1142-.0592-.0424-.1269-.0762-.2031-.1016-.0762-.0254-.1566-.0508-.2412-.0762-.0762-.0254-.1481-.055-.2158-.0888-.0677-.0339-.1185-.0847-.1524-.1524-.1269-.0085-.2412-.0338-.3428-.0762-.0931-.0423-.1819-.0888-.2666-.1396-.0761-.0593-.1565-.1185-.2412-.1777-.0846-.0593-.1819-.1101-.292-.1524-.0846-.1185-.1735-.2327-.2666-.3428-.0846-.1185-.1904-.2158-.3173-.292-.0254-.1608-.0678-.3216-.127-.4824-.0508-.1608-.1058-.3174-.165-.4697-.0508-.1608-.0931-.3216-.127-.4824-.0423-.1608-.0635-.3259-.0635-.4951 0-.1185.017-.2624.0508-.4317.0339-.1693.0762-.3385.127-.5078.0592-.1777.1269-.3428.2031-.4951.0762-.1524.1523-.2751.2285-.3682.0254-.0254.055-.0465.0889-.0635.0338-.0169.0635-.0423.0888-.0761.0762-.0847.1566-.1524.2413-.2031.0846-.0593.1735-.127.2666-.2032.0338-.0338.0592-.0719.0761-.1142.0254-.0423.0593-.0804.1016-.1143.0254-.0169.0592-.0211.1016-.0127.0507.0085.0931 0 .1269-.0254.0339-.0254.0508-.055.0508-.0888 0-.0339.0127-.0635.0381-.0889.0084-.0085.0338-.0085.0761 0h.0762c.0593 0 .127-.0381.2031-.1143.0762-.0846.1397-.1396.1905-.165.0592-.0339.1185-.055.1777-.0635.0593-.0169.1227-.0423.1904-.0762.0931-.0507.182-.0888.2666-.1142.0931-.0339.1862-.072.2793-.1143.0508-.0169.0974-.0465.1397-.0888.0423-.0424.0846-.072.1269-.0889.0762-.0254.1566-.0423.2412-.0508.0931-.0169.1778-.0296.254-.0381.0846-.0169.165-.0338.2412-.0508.0846-.0253.1608-.0677.2285-.1269h.1015c.1524 0 .3005-.0212.4444-.0635.1439-.0423.292-.0635.4443-.0635.0423 0 .1058.0085.1904.0254.0678-.0423.1439-.0634.2286-.0634.1438 0 .2877.038.4316.1142.1439.0677.292.1016.4443.1016h.0762c.0339 0 .0677-.0043.1016-.0127.0931.0931.2031.1439.33.1523.1355.0085.2497.0466.3428.1143.0593.0508.1058.11.1397.1777.0423.0677.0761.1397.1015.2158l.0762.2286c.0254.0761.0592.1438.1016.2031-.0424.3047-.1693.5501-.3809.7363-.2031.1777-.4613.2666-.7744.2666-.1185 0-.2201-.0127-.3047-.0381-.0762-.0338-.1481-.0677-.2158-.1015-.0593-.0339-.1227-.0678-.1904-.1016-.0678-.0339-.1439-.0592-.2286-.0762.0931-.1692.1524-.3512.1778-.5459-.0931-.0423-.1862-.0719-.2793-.0888-.0931-.017-.182-.0466-.2666-.0889-.2285.0592-.4528.1016-.6729.1269-.2116.017-.4105.1058-.5967.2666-.0423-.0084-.0888-.0169-.1396-.0253-.0423-.0085-.0846-.0127-.127-.0127-.0507 0-.1523.038-.3046.1142-.1524.0677-.3174.1481-.4952.2412-.1692.0931-.3343.1862-.4951.2793-.1523.0931-.2581.1566-.3174.1905-.0677.0423-.1269.0931-.1777.1523-.0508.0592-.1016.1227-.1523.1904-.0508.0593-.1016.1185-.1524.1778-.0508.0507-.1142.0888-.1904.1142-.0169.0931-.0466.1735-.0889.2412-.0423.0677-.0888.1397-.1396.2159-.0085.1523-.0254.3046-.0508.457-.0169.1523-.0254.3047-.0254.457v.1651c0 .0507.0085.0973.0254.1396.0846.11.1523.2327.2031.3682.0593.1354.1566.2285.292.2793.0085.0338.0042.055-.0127.0634-.0085.0085-.0169.0297-.0254.0635.0508.0931.1143.1693.1905.2285.0846.0508.1692.1058.2539.1651.0846.0508.165.1058.2412.165.0761.0593.1354.1354.1777.2285.127 0 .2454.0212.3555.0635.1185.0423.2285.0889.33.1397.1101.0507.2116.0973.3047.1396.1016.0423.2032.0635.3047.0635.0931 0 .1778-.0127.2539-.0381.2201.0677.4401.1185.6602.1523.2285.0254.457.0381.6855.0381.2793 0 .5586-.0169.8379-.0508.2793-.0338.5586-.0634.8379-.0888.1016-.017.1989-.0254.292-.0254.0931 0 .1862-.0085.2793-.0254.1185-.0169.2285-.072.3301-.165.11-.0931.2158-.1609.3174-.2032.0931.0593.2031.0889.33.0889.1439 0 .2836-.0212.419-.0635.1354-.0508.2751-.0762.4189-.0762h.0635Zm7.9346-5.789v.0508c-.0593.0169-.0889.0592-.0889.1269-.0931.0423-.1904.0762-.292.1016-.1015.0169-.1989.0465-.292.0888-.0931-.0084-.1904-.0127-.292-.0127-.0931-.0084-.1862-.0126-.2793-.0126-.2539 0-.5078.0084-.7617.0253-.2539.017-.5078.017-.7617 0-.1185.0678-.2497.1228-.3936.1651-.1354.0338-.2666.0508-.3935.0508-.1016 0-.1904-.0127-.2666-.0381-.2031.1015-.4274.1862-.6729.2539-.2369.0677-.4781.1354-.7236.2031-.2454.0593-.4824.1312-.7109.2158-.2201.0762-.4147.1862-.584.3301-.0169.1185-.0296.237-.0381.3555-.0085.11-.0127.22-.0127.3301 0 .1184.0042.2285.0127.33.0169.1016.0465.2032.0889.3047.0423.0169.0888.0296.1396.0381.0593.0085.11.0127.1524.0127.0423 0 .0846-.0042.1269-.0127.0423-.0169.072-.0465.0889-.0889.1269-.0169.2539-.0211.3808-.0127h.3809c.127 0 .2497-.0042.3682-.0126.1269-.0085.2496-.0297.3681-.0635.1354-.0339.2666-.055.3936-.0635.1354-.0085.2666-.0169.3935-.0254.127-.0085.2582-.0212.3936-.0381.1354-.0254.2751-.0719.4189-.1396.1101.0423.2201.0634.3301.0634.1185 0 .2328.0085.3428.0254.0592.0424.1058.0889.1396.1397.0424.0508.0635.11.0635.1777 0 .1185-.0423.237-.1269.3555-.0847.1185-.1524.2285-.2032.3301h-.1396c-.2031 0-.402.0296-.5967.0888-.1862.0508-.3766.1143-.5713.1905-.1862.0677-.3766.1312-.5713.1904-.1862.0508-.3808.0762-.584.0762-.0338 0-.055.0211-.0634.0634 0 .0339-.0085.0593-.0254.0762-.0423-.0084-.1058-.0127-.1905-.0127-.1946 0-.3808.0212-.5585.0635-.1778.0423-.3597.0635-.5459.0635h-.1524c-.0508-.0085-.1016-.017-.1523-.0254-.0424.0677-.0974.1142-.1651.1396-.0677.017-.1312.0508-.1904.1016-.0254.0762-.0423.1693-.0508.2793 0 .11-.0042.2243-.0127.3428 0 .11-.0084.2158-.0254.3173-.0169.1016-.0507.182-.1015.2413.0084.0423.0423.0592.1015.0507.0593-.0169.0889.0085.0889.0762 0 .0762-.0085.1566-.0254.2412-.0169.0847-.0254.1693-.0254.2539 0 .1608.0169.3386.0508.5332.0423.1862.1016.3597.1777.5205.0847.1608.1947.2963.3301.4063.1354.1016.3047.1523.5078.1523.1354 0 .2624-.0254.3809-.0761.1185-.0508.2158-.1355.292-.2539l.0635-.0127c.0338 0 .0634.0042.0888.0127.0339.0084.0677.0127.1016.0127.0508 0 .1142-.0297.1904-.0889.0846-.0677.1735-.1439.2666-.2285.1016-.0847.2031-.1651.3047-.2412.1016-.0847.1989-.1439.292-.1778.0592-.1185.1143-.237.165-.3554.0593-.1185.1439-.2116.2539-.2793v-.3682c.0847-.0931.1735-.1777.2666-.2539.1016-.0762.1778-.1735.2286-.292.0423.0169.0804.0296.1142.0381.0423.0084.0846.0127.127.0127.0423 0 .0846-.0043.1269-.0127.0508-.0085.0973-.0212.1397-.0381.0677.0931.1185.1989.1523.3174.0423.11.0931.2158.1524.3174-.0762.1523-.1651.3343-.2666.5459-.1016.2115-.2116.4231-.3301.6347-.1185.2116-.2455.4147-.3809.6094-.1269.1862-.2539.3301-.3808.4316-.0254.0254-.0804.0551-.1651.0889-.0931.0677-.1777.1312-.2539.1904-.0762.0677-.1481.1439-.2158.2286-.2455.0761-.4824.1777-.7109.3046-.2201.127-.4402.2497-.6602.3682-.1016-.0254-.2116-.0381-.3301-.0381-.1015 0-.2031.0042-.3047.0127-.1015.0169-.2116.0254-.33.0254-.0339-.0423-.0847-.0719-.1524-.0889-.0592-.0084-.0804-.0507-.0635-.1269-.2877-.0169-.5205-.0973-.6982-.2412-.1777-.1354-.3301-.3047-.457-.5078-.1185-.2032-.2159-.4232-.292-.6602-.0762-.237-.1566-.4655-.2412-.6855v-.0381c0-.0423.0169-.0677.0507-.0762.0339-.0085.0508-.0339.0508-.0762 0-.0169-.0042-.0296-.0127-.0381-.0254-.0931-.0465-.1735-.0635-.2412-.0169-.0677-.0253-.1481-.0253-.2412 0-.1354.0084-.2666.0253-.3935.017-.1355.0254-.2709.0254-.4063 0-.1354-.0169-.2539-.0507-.3555.0338-.0423.0634-.0973.0888-.165.017-.0762.0296-.1523.0381-.2285.0085-.0762.0127-.1524.0127-.2285.0085-.0762.0212-.1439.0381-.2031-.0339-.0931-.0635-.1736-.0889-.2413-.0254-.0761-.0381-.165-.0381-.2666v-.0888c.0847-.1439.1566-.292.2159-.4444.0592-.1523.1227-.3089.1904-.4697v-.0381c0-.2454-.0085-.4909-.0254-.7363-.0169-.2454-.0254-.4909-.0254-.7363v-.2412c0-.0847.0042-.1651.0127-.2413.0677-.0338.1185-.0804.1523-.1396.0339-.0592.0847-.1058.1524-.1397h.4189l.0762-.1269c.0254-.0423.0423-.0889.0508-.1397.0931-.0253.182-.0592.2666-.1015.0931-.0508.1777-.1016.2539-.1524.1185-.0677.2243-.1269.3174-.1777.1015-.0592.1989-.1058.292-.1396.1015-.0424.2073-.0762.3174-.1016.11-.0254.2369-.0466.3808-.0635.0677 0 .11-.0127.127-.0381.0254-.0254.0592-.055.1015-.0888.1016.0169.2032.0338.3047.0507.1016.0085.2031.0127.3047.0127.2031 0 .3936-.038.5713-.1142.2539 0 .5036-.0042.749-.0127.2539-.0085.5078-.0127.7617-.0127.2201 0 .4401.0085.6602.0254.22.0169.4359.0465.6475.0889.0761-.0254.1608-.0381.2539-.0381.1015 0 .2031.0127.3046.0381.1101.0169.2159.0169.3174 0 .0085.093.0297.1735.0635.2412.0423.0592.0635.1311.0635.2158Zm11.4385-.6602c0 .0762-.0339.1397-.1016.1905-.0592.0507-.0889.0888-.0889.1142 0 .0508.0085.0889.0254.1143.0169.0169.0254.0381.0254.0634v.0635c-.0846.0847-.1481.1778-.1904.2793-.0423.0931-.0762.1947-.1016.3047-.0254.1016-.0508.2074-.0762.3174-.0169.11-.0423.2158-.0761.3174-.0423.1015-.0974.1904-.1651.2666-.0677.0677-.1227.1481-.165.2412-.0677.1523-.1185.3089-.1523.4697-.0339.1608-.1058.3089-.2159.4443v.0635c-.0084.0593.0085.1101.0508.1524-.1608.2116-.2877.4655-.3808.7617-.0931.2877-.1693.5924-.2286.9141-.0592.3131-.11.6305-.1523.9521-.0423.3131-.0931.5967-.1523.8506.0423.1862.1057.3639.1904.5332.0931.1608.1819.3301.2666.5078.1693.0423.3301.1016.4824.1777.1608.0762.2751.1989.3428.3682-.017.1693-.072.3005-.1651.3936-.0931.0931-.2073.1904-.3427.2919-.0931-.0338-.1693-.0634-.2286-.0888-.0592-.0169-.1481-.0169-.2666 0-.1608-.127-.3131-.2285-.457-.3047-.1354-.0762-.2581-.2074-.3681-.3936-.017-.0254-.0424-.038-.0762-.038h-.1143c-.0423-.1016-.0931-.2074-.1523-.3174-.0593-.1185-.1185-.237-.1778-.3555-.0592-.127-.11-.2497-.1523-.3682-.0423-.1269-.0635-.2412-.0635-.3427 0-.4317.0381-.8591.1143-1.2823.0846-.4316.1269-.8675.1269-1.3076v-.1269c-.1692.0423-.3385.1015-.5078.1777-.1608.0762-.3258.1354-.4951.1777-.0592.017-.0931.0466-.1016.0889-.0084.0423-.0338.0762-.0761.1016-.0847.0084-.1651.0169-.2412.0254h-.2159c-.1438 0-.2962-.0043-.457-.0127-.1523-.017-.3047-.0466-.457-.0889-.1524-.0423-.2962-.1016-.4317-.1777-.1269-.0762-.2412-.1735-.3427-.292-.017.0084-.0381.0169-.0635.0254-.0254.0084-.0508.0126-.0762.0126-.0254 0-.0508-.0042-.0762-.0126-.0253-.0085-.0465-.017-.0634-.0254-.0677-.0931-.1228-.1947-.1651-.3047l-.1269-.3301c-.0423-.11-.0889-.2158-.1397-.3174-.0508-.1015-.1185-.1946-.2031-.2793-.0254-.1523-.0381-.3004-.0381-.4443 0-.1524.0127-.3005.0381-.4444.0169-.1438.0465-.2877.0889-.4316-.0339-.1016-.055-.2074-.0635-.3174-.0169-.11-.0254-.22-.0254-.3301 0-.1269.0127-.2581.0381-.3935.0254-.1354.0677-.2581.1269-.3682.0593-.1185.1439-.2158.2539-.292.1016-.0761.2286-.1142.3809-.1142.1693 0 .3259.0465.4697.1396.1439.0847.2836.1735.419.2666.0169.1016.0296.2032.0381.3047.0084.0931.0127.1947.0127.3047 0 .2031-.0127.4105-.0381.6221-.017.2031-.0254.4105-.0254.622 0 .2201.0254.4275.0762.6221.0592.1862.1608.3639.3046.5332h.0508c.0677-.0084.127.0042.1778.0381.0507.0339.11.0508.1777.0508.0592 0 .1058-.0212.1396-.0635.0339-.0508.0762-.0762.127-.0762s.0889.0085.1142.0254c.0254.017.0466.0254.0635.0254.0931 0 .1989-.0338.3174-.1015.1185-.0678.1947-.1439.2285-.2286.0339.0254.0762.0381.127.0381.0677 0 .1312-.0211.1904-.0635.0593-.0423.1354-.0634.2285-.0634.0508 0 .0677-.0297.0508-.0889-.0085-.0677.0085-.11.0508-.127.1015-.0423.2116-.1015.3301-.1777.1269-.0846.2285-.1354.3047-.1523.0423-.1101.0931-.2116.1523-.3047.0677-.1016.1354-.1947.2031-.2793.0254-.1947.0762-.3809.1524-.5586.0761-.1777.1565-.3555.2412-.5332.0846-.1777.165-.3555.2412-.5332.0762-.1777.1269-.3639.1523-.5586.0931-.0931.1651-.1947.2158-.3047.0593-.11.1101-.22.1524-.3301.0846-.0254.1904-.0381.3174-.0381.1269-.0084.237-.0127.3301-.0127h.2158c.0254.0508.0592.0974.1015.1397l.127.1269c-.0762.1185-.1143.237-.1143.3555 0 .0931.0212.1862.0635.2793.0423.0846.0889.1651.1397.2412Zm8.2646 1.3838c-.0508.0762-.0804.1608-.0889.2539-.0084.0931-.0127.1778-.0127.2539v.3047c.0085.0931.0127.1862.0127.2793v.1904c-.0169.0593-.0423.1185-.0761.1778-.0339.0592-.0593.1185-.0762.1777-.1185.3132-.1777.6263-.1777.9395v.0254c-.0424.1015-.0847.1946-.127.2792-.0338.0847-.0677.1693-.1016.254-.0338.0761-.0592.1608-.0761.2539-.017.0846-.0212.1862-.0127.3047-.1185.2962-.2751.567-.4697.8124-.1947.237-.3851.4825-.5713.7364-.1778.0677-.3428.1566-.4952.2666-.1438.11-.2835.2327-.4189.3681-.2624.0847-.5205.182-.7744.292-.2539.1101-.4824.2582-.6856.4444-.1608.0169-.3216.0423-.4824.0761-.1608.0339-.3174.0847-.4697.1524h-.1524c-.0761 0-.1311-.0169-.165-.0508-.11.0593-.2243.1016-.3428.127-.1185.0169-.2369.0254-.3554.0254-.1524 0-.3047-.0085-.4571-.0254-.1438-.0254-.292-.0508-.4443-.0762-.0846-.1185-.2031-.2074-.3555-.2666-.1523-.0677-.2877-.1312-.4062-.1904-.2455-.3386-.4232-.6644-.5332-.9776-.11-.3216-.2243-.6813-.3428-1.0791.0169-.1185.0466-.2327.0889-.3428.0423-.1184.0592-.2454.0508-.3808.1523-.4401.3512-.8379.5966-1.1934.2539-.3639.5417-.7109.8633-1.041 0-.0508.0085-.0931.0254-.1269.0254-.0339.0296-.0847.0127-.1524.0085.0085.0254.0127.0508.0127.0677 0 .11-.0169.1269-.0508.017-.0423.0212-.0888.0127-.1396.3047-.1947.5798-.419.8252-.6729.2539-.2539.5417-.4655.8633-.6347.0254-.0762.0677-.1397.127-.1905.0592-.0508.1058-.11.1396-.1777.2708-.0762.5163-.1904.7363-.3428.2201-.1523.4528-.2877.6983-.4062.1354-.0762.2623-.127.3808-.1524.127-.0338.2624-.0677.4063-.1015.0508-.017.0973-.0297.1396-.0381.0424-.0085.0889-.0127.1397-.0127.1523 0 .3004.0296.4443.0889.1439.0507.292.0761.4444.0761h.1015c.0339-.0084.0677-.0169.1016-.0254.1439.1778.3258.3132.5459.4063.0508.1269.11.237.1777.3301.0762.0931.1524.1862.2285.2793.0762.0846.1439.1819.2032.2919.0677.1016.11.2243.1269.3682Zm-1.2695.6602c0-.0423-.0043-.0804-.0127-.1143-.0847-.0254-.1651-.0592-.2412-.1015-.0762-.0424-.1608-.0635-.2539-.0635-.0593 0-.1185.0127-.1778.0381-.0084-.0593-.0338-.1016-.0761-.127-.0339-.0254-.0762-.0465-.127-.0635-.0423-.0254-.0889-.0423-.1396-.0508-.0424-.0169-.0804-.0423-.1143-.0761-.0254-.0677-.055-.1354-.0889-.2031-.0254-.0762-.0761-.1312-.1523-.1651-.0762.0762-.1651.1397-.2666.1904-.1016.0424-.2074.0847-.3174.127-.1016.0423-.2031.0931-.3047.1523-.0931.0593-.1735.1312-.2412.2159h-.2285c-.0508.0931-.1227.165-.2158.2158-.0931.0423-.1735.1058-.2412.1904-.1355.0677-.2624.1524-.3809.2539-.11.0931-.2201.1947-.3301.3047-.11.1016-.22.2074-.3301.3174-.1015.11-.2115.2116-.33.3047-.1101.237-.2328.4443-.3682.622-.127.1693-.2497.3428-.3682.5206-.11.1777-.2073.3723-.292.5839-.0761.2032-.1142.4571-.1142.7618v.1269c0 .0423.0042.0846.0127.127.11.1185.1989.2454.2666.3808.0762.1354.1989.2328.3681.292.1693.0677.3471.0973.5332.0889.1947-.0085.3809.0127.5586.0635.4063-.0762.7956-.1989 1.168-.3682.3809-.1777.7406-.3893 1.0791-.6348.0508-.0423.11-.0846.1777-.1269.0678-.0508.1228-.1016.1651-.1524.0423-.0423.0762-.0888.1015-.1396.0339-.0508.0678-.0973.1016-.1397.0677-.11.1439-.22.2285-.33.0847-.1101.1735-.2116.2666-.3047.0423-.1862.0974-.364.1651-.5332.0677-.1778.1354-.3513.2031-.5205.0677-.1693.1227-.3428.165-.5206.0508-.1777.0762-.3639.0762-.5585 0-.0424-.0042-.0889-.0127-.1397 0-.0508-.0042-.0973-.0127-.1396.0677-.0931.1016-.1947.1016-.3047Zm10.0547 4.6338c-.0339.1269-.0889.2327-.1651.3173-.0761.0847-.165.1608-.2666.2286-.0931.0677-.1946.1311-.3047.1904-.11.0508-.2158.11-.3173.1777h-.1651c-.3555 0-.6305-.0846-.8252-.2539-.1862-.1777-.3301-.3935-.4316-.6474-.1016-.2624-.1778-.5417-.2285-.8379-.0424-.2963-.0974-.5671-.1651-.8125-.1015.0846-.1862.1862-.2539.3047-.0677.11-.1396.22-.2158.33-.0677.1101-.1481.2116-.2412.3047-.0847.0931-.1989.1566-.3428.1904-.0254.0593-.055.1185-.0889.1778-.0253.0592-.0423.1227-.0507.1904-.1862.1016-.3555.2201-.5078.3555-.1524.1354-.3047.275-.4571.4189-.1523.1439-.3089.2836-.4697.419-.1524.1269-.3259.2327-.5205.3174-.0085-.0085-.0254-.0127-.0508-.0127-.1016 0-.1947.0253-.2793.0761-.0846.0423-.1777.0635-.2793.0635-.0677 0-.1312-.0127-.1904-.0381-.0508-.0254-.1058-.055-.1651-.0888-.0507-.0339-.1058-.0593-.165-.0762-.0592-.0169-.1227-.0212-.1904-.0127-.0847-.1524-.1989-.292-.3428-.419-.1354-.1354-.2201-.2877-.2539-.457-.0169-.0762-.0296-.1523-.0381-.2285 0-.0846-.0085-.1693-.0254-.2539-.0254-.127-.0592-.2539-.1015-.3809-.0424-.1354-.0762-.2708-.1016-.4062.0423-.2285.0846-.4782.1269-.749.0339-.2793.0762-.5544.127-.8252.0592-.2793.1354-.5417.2285-.7871.1016-.254.2285-.4698.3809-.6475l-.0127-.0889c0-.1354.0254-.2623.0761-.3808.0508-.1185.1058-.2328.1651-.3428.0592-.11.11-.2201.1523-.3301.0423-.11.0508-.2327.0254-.3682.1016-.0507.2074-.0931.3174-.1269.11-.0339.2243-.0508.3428-.0508.11 0 .2116.0169.3047.0508-.017.0677.0127.11.0888.1269v.0381c0 .1778-.0211.3513-.0634.5205-.0424.1693-.0931.3386-.1524.5079-.0592.1608-.1185.3258-.1777.4951-.0508.1608-.0889.3258-.1143.4951-.0338.0085-.0592.0254-.0762.0508-.0084.0254-.0169.0508-.0253.0761-.0085.0254-.0212.0466-.0381.0635-.017.0169-.0423.0254-.0762.0254-.0508.2962-.1058.5925-.165.8887-.0508.2877-.0762.5797-.0762.876 0 .1777.0169.3597.0508.5459.0338.1862.0973.3639.1904.5332l.0508-.0127c.0931 0 .165.0211.2158.0634.0592.0424.1354.0847.2285.127.0677-.0169.1312-.0381.1904-.0635.0593-.0338.0847-.0889.0762-.165.11-.0085.2031-.0339.2793-.0762.0762-.0508.1439-.1058.2031-.165l.1905-.1778c.0677-.0592.1481-.1015.2412-.1269 0-.0508.0127-.0889.0381-.1143l.0761-.0762c.0254-.0253.0424-.0507.0508-.0761.0169-.0339.0212-.0804.0127-.1397.1016-.0084.1778-.0338.2285-.0761.0593-.0424.1101-.0889.1524-.1397.0508-.0592.0973-.1185.1396-.1777.0423-.0593.0974-.1101.1651-.1524.0592-.1269.1396-.2962.2412-.5078.11-.2116.2158-.4316.3174-.6601.11-.2286.2031-.4444.2793-.6475.0846-.2116.1269-.3724.1269-.4824 0-.0423-.0127-.0804-.0381-.1143-.0169-.0338-.0211-.0719-.0127-.1142v-.0381c.0677-.0847.127-.1778.1778-.2793.0592-.1016.1184-.1989.1777-.292.0677-.0931.1396-.1777.2158-.2539.0762-.0762.1735-.1354.292-.1778.1354.0424.2708.072.4063.0889.1438.0169.2793.0508.4062.1016.0085.2116.0296.457.0635.7363.0338.2793.0931.5163.1777.7109 0 .1101-.0042.2159-.0127.3174v.3047c0 .1693.0043.3428.0127.5205.0169.1778.0466.3428.0889.4951-.0593.127-.0889.2624-.0889.4063 0 .1946.0296.3808.0889.5586.0592.1693.1015.3512.1269.5459.1101.1523.2539.2285.4317.2285.0423 0 .0761-.0042.1015-.0127.0339-.0085.0677-.0212.1016-.0381.0677.0762.127.1524.1777.2285.0593.0677.127.1312.2032.1905Zm16.6562-.1524c-.0169.127-.0635.2243-.1396.292-.0677.0677-.1481.1312-.2412.1904-.0424-.0084-.0847-.0127-.127-.0127-.0339-.0084-.0719-.0127-.1143-.0127-.2623-.0084-.512.0254-.749.1016-.2285.0762-.4655.1312-.7109.165-.0847.017-.1651.0254-.2412.0254-.0677-.0084-.1397-.0042-.2159.0127-.2708.0424-.5585.0762-.8632.1016-.3047.0254-.6094.0592-.9141.1016-.3047.0338-.6051.0804-.9014.1396-.2877.0508-.5586.127-.8125.2285-.0254-.0169-.0507-.0338-.0761-.0508-.0254-.0253-.055-.038-.0889-.038-.0846 0-.165.0127-.2412.038-.0762.0254-.1524.0339-.2285.0254-.0847.0508-.1778.0889-.2793.1143-.0931.0169-.1905.0338-.292.0508-.0931.0084-.1862.0254-.2793.0508-.0931.0253-.182.0719-.2666.1396-.0677-.0339-.1524-.0508-.2539-.0508-.0931-.0084-.1566-.0423-.1904-.1015-.1947.0931-.4021.1523-.6221.1777-.2116.0254-.4274.0338-.6475.0254-.1439-.0085-.3089-.0296-.4951-.0635-.1862-.0338-.3724-.0804-.5586-.1396-.1862-.0678-.3597-.1439-.5205-.2286-.1608-.0931-.2835-.2031-.3682-.33-.0592-.0847-.1015-.1778-.1269-.2793-.0254-.1016-.0847-.1778-.1778-.2285.0254-.1947.0551-.3851.0889-.5713.0339-.1862.0677-.3767.1016-.5713.1692-.1439.3301-.2963.4824-.4571s.2962-.33.4316-.5078c.1608-.0761.309-.1692.4444-.2793.1439-.11.2835-.22.4189-.33.1439-.1185.2836-.2328.419-.3428.1438-.11.2962-.2074.457-.292.0254-.0593.0592-.1058.1016-.1397.0507-.0423.1015-.0804.1523-.1142.0508-.0423.0973-.0847.1397-.127.0423-.0508.0719-.11.0888-.1777.2962-.1777.5544-.402.7744-.6729.2201-.2708.364-.5755.4317-.914-.1439-.1185-.3089-.1947-.4951-.2285-.1778-.0424-.364-.072-.5586-.0889-.1693-.0085-.347-.0085-.5332 0-.1778.0085-.3597.0042-.5459-.0127-.1862.0592-.3809.0973-.584.1143-.1947.0169-.3893.0338-.584.0507-.1947.0085-.3893.0339-.584.0762-.1862.0339-.3682.1016-.5459.2031-.0338 0-.0677-.0042-.1016-.0127-.0253-.0084-.055-.0127-.0888-.0127-.2709-.0084-.5248.0466-.7617.1651-.237.11-.4698.22-.6983.3301-.0169.0338-.0254.0592-.0254.0761 0 .0508.0085.1016.0254.1524.0254.0423.0381.0888.0381.1396-.0085.0085-.0127.017-.0127.0254 0 .0085-.0042.0169-.0127.0254-.0084.0423-.0211.0804-.0381.1143-.0084.0338-.0211.0719-.0381.1142-.0931.2709-.1438.5375-.1523.7998-.0085.2201-.0085.4359 0 .6475.0085.2116.0085.4274 0 .6475-.0169.2708-.0592.5247-.127.7617.0424.2031.0805.4189.1143.6474.0339.2201.0762.4401.127.6602.0507.22.11.4359.1777.6474.0762.2032.1735.3978.292.584-.0085.017-.0042.0297.0127.0381.0169.0085.0338.0127.0508.0127h.1015c.0423 0 .0593.0169.0508.0508.0169.0254.0296.0508.0381.0762.0085.0169.0254.0338.0508.0508.0169.0253.0169.0592 0 .1015-.0085.1693-.0508.3259-.127.4697-.0762.1439-.1227.3005-.1396.4698-.1016.0254-.1947.0381-.2793.0381-.1439-.0085-.2709-.0508-.3809-.127-.11-.0677-.2116-.1523-.3047-.2539-.0931-.1016-.1819-.2031-.2666-.3047-.0846-.11-.1777-.2031-.2793-.2793-.0592-.237-.1185-.4993-.1777-.7871-.0508-.2878-.1397-.5332-.2666-.7363.0338-.0762.0508-.1693.0508-.2793.0084-.1693-.0085-.3343-.0508-.4951-.0339-.1693-.0423-.3386-.0254-.5079 0-.0931.0085-.1862.0254-.2793.0254-.0931.0423-.1862.0508-.2792.0084-.1439-.0085-.2836-.0508-.419-.0339-.1354-.0466-.2751-.0381-.4189.0085-.0677.0212-.1312.0381-.1905.0254-.0677.0592-.1269.1016-.1777-.0424-.1016-.0551-.1989-.0381-.292.0084-.1439.0254-.2793.0508-.4062.0253-.127.0423-.254.0507-.3809 0-.0677-.0042-.1312-.0127-.1904-.0084-.0677-.0211-.1312-.038-.1905l-.1143-.0381c-.0508 0-.1016.0127-.1524.0381-.0423.0254-.0804.055-.1142.0889l-.0889.0889c-.0254.0169-.0508.0254-.0761.0254h-.0635c-.017-.0085-.0339-.0127-.0508-.0127s-.0508.0169-.1016.0507c-.0423.0339-.0973.072-.165.1143-.0593.0339-.1185.0719-.1777.1143-.0593.0338-.1058.055-.1397.0634-.0931-.0169-.1693-.0465-.2285-.0888-.0508-.0508-.1016-.0974-.1523-.1397-.0424-.0508-.0889-.0931-.1397-.1269-.0508-.0423-.1143-.0593-.1904-.0508-.0254-.0508-.0381-.1058-.0381-.1651-.0085-.0592-.0085-.1184 0-.1777v-.2031c.0592-.11.1396-.1989.2412-.2666.0931-.0762.1947-.1397.3047-.1904l.3301-.1524c.11-.0508.2116-.1142.3046-.1904h.1143c.1524.0084.2835-.0212.3936-.0889.1185-.0677.2285-.1439.33-.2285.1016-.0931.2032-.1862.3047-.2793.1101-.0931.2285-.165.3555-.2158.0931.0423.1904.0804.292.1142.1016.0254.2073.0424.3174.0508.11 0 .2243-.0169.3427-.0508.1185-.0338.2116-.0973.2793-.1904.0424.0169.0762.0296.1016.0381h.1143c.1269.0085.2539-.0085.3808-.0508.127-.0508.2497-.11.3682-.1777.1693.0084.3343 0 .4951-.0254.1693-.0339.3343-.0677.4951-.1016.1693-.0338.3343-.0634.4951-.0888.1693-.0339.3386-.0466.5079-.0381.2792.0084.5543-.017.8251-.0762.2709-.0592.5459-.0804.8252-.0635.1947.0085.3851.0254.5713.0508.1947.0169.3894.0212.584.0127.11.0508.2074.0973.292.1397.0931.0338.2074.0423.3428.0253.2708.2286.5163.4952.7363.7998v.2159c-.0085.1946-.0423.3851-.1016.5713-.0592.1862-.1311.3724-.2158.5586-.0761.1777-.1608.3554-.2539.5332-.0931.1692-.1819.3385-.2666.5078-.5501.4993-1.1002.9944-1.6504 1.4853-.5501.4909-1.1172.9649-1.7011 1.4219-.017.0846-.0424.1608-.0762.2285-.0254.0677-.0423.1397-.0508.2158 0 .0423.0042.0762.0127.1016.0592.0169.11.0508.1523.1016.0508.0423.0677.1015.0508.1777h.1143c.0423 0 .0635.0169.0635.0508l.2031.0127c.3216.0169.6432.0084.9648-.0254.3216-.0339.6433-.072.9649-.1143.33-.0423.6559-.0804.9775-.1142.3216-.0424.6432-.0677.9649-.0762.0761-.0254.1565-.0466.2412-.0635.0846-.0169.1608-.0508.2285-.1016h.0381c.0592 0 .1015.017.1269.0508.0339.0339.0804.055.1397.0635.0423 0 .0846-.0085.1269-.0254.0508-.0169.1016-.0296.1524-.0381.1185-.0338.2412-.055.3681-.0634.1354-.0085.2666-.0212.3936-.0381.4909-.0424.9775-.0677 1.4599-.0762.4825-.0169.9649-.0804 1.4473-.1904.0423.0592.1016.1015.1777.1269.0762.0169.1566.0381.2413.0635.0846.0169.1608.0381.2285.0635.0761.0254.1269.0761.1523.1523Zm10.0797-6.1318c-.017.1015-.042.1904-.076.2666-.025.0677-.029.1608-.012.2793-.085.0084-.153.0381-.204.0888-.042.0424-.08.0931-.114.1524-.025.0592-.055.1227-.089.1904-.025.0593-.059.1143-.101.1651.067.3046.106.6136.114.9267.008.3132.03.6221.063.9268.043.3893.106.7744.191 1.1552.093.3724.14.7533.14 1.1426 0 .1185-.005.2285-.013.3301v.5332c.008.0677.013.1354.013.2031 0 .2455-.034.4909-.102.7364-.059.2454-.106.4908-.14.7363-.101.0931-.19.1946-.266.3047-.068.11-.14.2116-.216.3047-.076.0931-.165.1735-.267.2412-.101.0761-.228.1269-.381.1523-.025.0847-.076.1481-.152.1904-.068.0424-.127.1016-.178.1778h-.025c-.212 0-.394-.0296-.546-.0889-.152-.0592-.296-.1269-.432-.2031-.127-.0762-.258-.1566-.393-.2412-.136-.0847-.292-.1524-.47-.2031-.237-.1947-.453-.4063-.647-.6348-.195-.237-.415-.4486-.66-.6348-.06-.1692-.14-.3089-.242-.4189-.093-.11-.186-.237-.279-.3809-.042-.0592-.076-.1142-.102-.165-.016-.0508-.042-.11-.076-.1778-.025-.0677-.067-.1142-.127-.1396-.05-.0254-.097-.055-.139-.0889-.068-.2623-.165-.5036-.292-.7236-.127-.2201-.275-.4316-.445-.6348-.05.0931-.093.1947-.127.3047-.025.1016-.05.2074-.076.3174-.025.1016-.059.2074-.101.3174-.034.1015-.081.1946-.14.2793v.0381c0 .0423.017.0677.051.0761.034.0085.051.0339.051.0762 0 .0085-.005.0169-.013.0254v.0254c-.042.0338-.076.0762-.102.1269-.017.0508-.059.0804-.127.0889.009.0423.013.0846.013.127v.1142c0 .2455-.03.4909-.089.7363-.051.2455-.076.4952-.076.7491v.165c0 .0593.004.1143.013.1651.017.0507.042.1015.076.1523.034.0508.051.0973.051.1396 0 .0593-.026.1143-.076.1651.059.0423.126.0888.203.1396.076.0508.144.1058.203.1651.067.0677.122.1354.165.2031.042.0762.063.1566.063.2412 0 .1439-.046.2454-.139.3047-.093.0592-.208.1058-.343.1396-.127.0339-.263.0635-.406.0889-.136.0339-.25.0889-.343.165h-.038c-.102 0-.178-.0296-.229-.0888-.051-.0593-.127-.0889-.228-.0889-.161-.2624-.271-.5586-.33-.8887-.06-.3216-.089-.6305-.089-.9267 0-.3639.034-.7279.101-1.0918.06-.3639.136-.7236.229-1.0791.084-.3555.178-.7067.279-1.0537.11-.3555.212-.711.305-1.0664l.013-.0381c0-.0423-.013-.072-.039-.0889-.016-.0169-.025-.0423-.025-.0762 0-.0169.004-.0253.013-.0253.025-.0847.051-.1651.076-.2413.034-.0761.059-.1608.076-.2539.051-.2369.085-.4782.102-.7236.025-.2539.038-.5036.038-.749.008-.2455.017-.4909.025-.7363.017-.254.047-.5036.089-.7491.068-.0677.131-.1396.19-.2158.06-.0762.136-.1439.229-.2031.169.0084.338.0338.508.0762.169.0423.33.11.482.2031.102.3639.169.7278.203 1.0918.043.3639.11.7278.203 1.0918v.0381c0 .0423.022.0634.064.0634.051-.0084.089.0043.114.0381-.017.0254-.029.055-.038.0889v.3174c.017.0677.038.1396.064.2158.025.0762.08.1227.165.1396.042.2709.105.5205.19.7491.085.2285.182.4485.292.6601.11.2116.229.4232.355.6348.127.2031.259.4189.394.6474.212.1609.394.3471.546.5586.152.2032.305.4021.457.5967.161.1862.338.3513.533.4951.203.1439.466.2328.787.2666.043-.0338.072-.0804.089-.1396l.064-.1777c.025-.0593.05-.1101.076-.1524.034-.0508.08-.0889.139-.1142.017-.237.034-.4782.051-.7237.026-.2454.081-.4782.165-.6982-.042-.0762-.063-.1693-.063-.2793 0-.0847.004-.1651.012-.2412.017-.0762.026-.1524.026-.2285 0-.1609-.034-.292-.102-.3936 0-.0592.005-.1185.013-.1777.008-.0677.034-.1312.076-.1905-.068-.1692-.123-.347-.165-.5332-.034-.1862-.051-.3766-.051-.5713 0-.11.013-.2242.038-.3427-.05-.127-.084-.2751-.101-.4444l-.051-.5205c-.017-.1777-.042-.3427-.076-.4951-.034-.1523-.097-.2751-.191-.3682.051-.0761.077-.165.077-.2666 0-.1692-.026-.33-.077-.4824-.05-.1523-.076-.3131-.076-.4824 0-.1185.026-.237.076-.3555.187.0085.369.0297.546.0635.187.0254.369.0381.546.0381.051.0677.11.1227.178.165.068.0424.14.0847.216.127.076.0338.148.0719.216.1142.076.0424.135.1016.177.1778Zm9.306.2666v.0508c-.059.0169-.089.0592-.089.1269-.093.0423-.19.0762-.292.1016-.101.0169-.199.0465-.292.0888-.093-.0084-.19-.0127-.292-.0127-.093-.0084-.186-.0126-.279-.0126-.254 0-.508.0084-.762.0253-.254.017-.508.017-.762 0-.118.0678-.249.1228-.393.1651-.135.0338-.267.0508-.394.0508-.101 0-.19-.0127-.266-.0381-.203.1015-.428.1862-.673.2539-.237.0677-.478.1354-.724.2031-.245.0593-.482.1312-.711.2158-.22.0762-.414.1862-.584.3301-.017.1185-.029.237-.038.3555-.008.11-.012.22-.012.3301 0 .1184.004.2285.012.33.017.1016.047.2032.089.3047.042.0169.089.0296.14.0381.059.0085.11.0127.152.0127.042 0 .085-.0042.127-.0127.042-.0169.072-.0465.089-.0889.127-.0169.254-.0211.381-.0127h.381c.127 0 .249-.0042.368-.0126.127-.0085.25-.0297.368-.0635.135-.0339.267-.055.394-.0635.135-.0085.266-.0169.393-.0254s.258-.0212.394-.0381c.135-.0254.275-.0719.419-.1396.11.0423.22.0634.33.0634.118 0 .232.0085.342.0254.06.0424.106.0889.14.1397.042.0508.064.11.064.1777 0 .1185-.043.237-.127.3555-.085.1185-.153.2285-.203.3301h-.14c-.203 0-.402.0296-.597.0888-.186.0508-.376.1143-.571.1905-.186.0677-.377.1312-.571.1904-.187.0508-.381.0762-.584.0762-.034 0-.055.0211-.064.0634 0 .0339-.008.0593-.025.0762-.043-.0084-.106-.0127-.191-.0127-.194 0-.381.0212-.558.0635-.178.0423-.36.0635-.546.0635h-.153c-.05-.0085-.101-.017-.152-.0254-.042.0677-.097.1142-.165.1396-.068.017-.131.0508-.19.1016-.026.0762-.043.1693-.051.2793 0 .11-.004.2243-.013.3428 0 .11-.008.2158-.025.3173-.017.1016-.051.182-.102.2413.009.0423.043.0592.102.0507.059-.0169.089.0085.089.0762 0 .0762-.009.1566-.026.2412-.017.0847-.025.1693-.025.2539 0 .1608.017.3386.051.5332.042.1862.101.3597.177.5205.085.1608.195.2963.33.4063.136.1016.305.1523.508.1523.136 0 .263-.0254.381-.0761.119-.0508.216-.1355.292-.2539l.064-.0127c.033 0 .063.0042.088.0127.034.0084.068.0127.102.0127.051 0 .114-.0297.19-.0889.085-.0677.174-.1439.267-.2285.102-.0847.203-.1651.305-.2412.101-.0847.199-.1439.292-.1778.059-.1185.114-.237.165-.3554.059-.1185.144-.2116.254-.2793v-.3682c.084-.0931.173-.1777.266-.2539.102-.0762.178-.1735.229-.292.042.0169.08.0296.114.0381.042.0084.085.0127.127.0127.042 0 .085-.0043.127-.0127.051-.0085.097-.0212.14-.0381.067.0931.118.1989.152.3174.042.11.093.2158.152.3174-.076.1523-.165.3343-.266.5459-.102.2115-.212.4231-.33.6347-.119.2116-.246.4147-.381.6094-.127.1862-.254.3301-.381.4316-.025.0254-.08.0551-.165.0889-.093.0677-.178.1312-.254.1904-.076.0677-.148.1439-.216.2286-.245.0761-.482.1777-.711.3046-.22.127-.44.2497-.66.3682-.101-.0254-.212-.0381-.33-.0381-.102 0-.203.0042-.305.0127-.101.0169-.211.0254-.33.0254-.034-.0423-.084-.0719-.152-.0889-.059-.0084-.081-.0507-.064-.1269-.287-.0169-.52-.0973-.698-.2412-.178-.1354-.33-.3047-.457-.5078-.118-.2032-.216-.4232-.292-.6602-.076-.237-.156-.4655-.241-.6855v-.0381c0-.0423.017-.0677.051-.0762.034-.0085.05-.0339.05-.0762 0-.0169-.004-.0296-.012-.0381-.026-.0931-.047-.1735-.064-.2412-.017-.0677-.025-.1481-.025-.2412 0-.1354.008-.2666.025-.3935.017-.1355.026-.2709.026-.4063 0-.1354-.017-.2539-.051-.3555.034-.0423.063-.0973.089-.165.017-.0762.029-.1523.038-.2285.008-.0762.013-.1524.013-.2285.008-.0762.021-.1439.038-.2031-.034-.0931-.064-.1736-.089-.2413-.026-.0761-.038-.165-.038-.2666v-.0888c.084-.1439.156-.292.216-.4444.059-.1523.122-.3089.19-.4697v-.0381c0-.2454-.009-.4909-.025-.7363-.017-.2454-.026-.4909-.026-.7363v-.2412c0-.0847.004-.1651.013-.2413.068-.0338.118-.0804.152-.1396s.085-.1058.153-.1397h.419l.076-.1269c.025-.0423.042-.0889.05-.1397.094-.0253.182-.0592.267-.1015.093-.0508.178-.1016.254-.1524.118-.0677.224-.1269.317-.1777.102-.0592.199-.1058.292-.1396.102-.0424.208-.0762.318-.1016.11-.0254.237-.0466.381-.0635.067 0 .11-.0127.127-.0381.025-.0254.059-.055.101-.0888.102.0169.203.0338.305.0507.101.0085.203.0127.304.0127.204 0 .394-.038.572-.1142.254 0 .503-.0042.749-.0127.254-.0085.508-.0127.762-.0127.22 0 .44.0085.66.0254.22.0169.436.0465.647.0889.076-.0254.161-.0381.254-.0381.102 0 .203.0127.305.0381.11.0169.216.0169.317 0 .009.093.03.1735.064.2412.042.0592.063.1311.063.2158Zm10.067-.0381h-.05c-.017-.0085-.034-.0085-.051 0-.017.0085-.026.0212-.026.0381.017.0677.026.1142.026.1396 0 .1016-.034.1905-.102.2666-.059.0677-.089.127-.089.1778 0 .0254.013.0465.039.0634.033.017.059.0297.076.0381-.043.0508-.081.1058-.115.1651-.033.0592-.071.11-.114.1523.017.2962.051.5882.102.876.059.2793.089.5628.089.8506 0 .1439-.017.2877-.051.4316-.026.1354-.055.2751-.089.419-.034.1354-.068.275-.102.4189-.025.1354-.038.2751-.038.419-.11.22-.228.4316-.355.6347-.127.1947-.22.4105-.279.6475-.195.1185-.364.2666-.508.4443-.136.1693-.271.3386-.407.5078-.296.1016-.567.237-.812.4063-.042.0084-.08.0127-.114.0127h-.102c-.321 0-.597-.0593-.825-.1778-.229-.1185-.427-.2708-.597-.457-.161-.1947-.3-.4147-.419-.6602-.118-.2454-.228-.4993-.33-.7617-.194.1439-.372.3089-.533.4951-.152.1778-.309.3555-.47.5333-.05.0677-.114.1481-.19.2412-.068.0846-.136.1481-.203.1904-.034.0169-.072.0338-.114.0508-.034.0084-.072.0211-.115.0381-.237.1354-.423.3173-.558.5459-.17.0677-.335.1438-.495.2285-.153.0846-.301.1735-.445.2666-.161.0084-.321.0211-.482.0381-.153.0084-.305.0127-.457.0127-.237 0-.406-.0127-.508-.0381-.093-.0339-.169-.072-.229-.1143-.05-.0508-.105-.11-.165-.1777-.05-.0677-.152-.1397-.304-.2158-.043-.1101-.085-.2201-.127-.3301-.034-.11-.085-.2116-.153-.3047v-.1777c0-.0762-.004-.1482-.012-.2159 0-.0677-.013-.1269-.038-.1777-.026-.0592-.068-.0973-.127-.1143 0-.3131.038-.622.114-.9267.076-.3047.14-.6136.19-.9268.043-.1777.068-.3597.077-.5459.008-.0423.012-.0888.012-.1396s.009-.1016.026-.1524c.017-.0507.046-.0931.089-.1269.042-.0339.071-.0847.088-.1524.043-.1184.068-.2496.077-.3935.008-.1439.021-.2793.038-.4063.042-.2539.088-.5078.139-.7617.06-.2539.127-.5036.203-.749-.008-.0423-.012-.0804-.012-.1143v-.1269c0-.3216.021-.6348.063-.9395.051-.3047.076-.6178.076-.9394 0-.1524-.012-.3132-.038-.4824.043-.0847.089-.1609.14-.2286.059-.0761.135-.1354.228-.1777.178.0931.352.1947.521.3047.178.1016.347.2158.508.3428v.3047c0 .2454-.009.5078-.026.7871-.008.2708-.033.5459-.076.8252-.034.2793-.08.5501-.139.8125-.06.2623-.14.5035-.242.7236v.4062c-.152.2709-.254.5544-.304.8506-.051.2963-.11.5925-.178.8887-.017.0931-.051.2031-.102.3301-.05.1269-.076.237-.076.3301 0 .0423.004.0846.013.1269.017.0423.029.0846.038.127-.068.1523-.106.3173-.114.4951 0 .1692-.021.3385-.064.5078.068.11.127.2285.178.3555.059.1184.123.2412.19.3681l.127-.0127c.077 0 .157.0085.242.0254.084.0085.165.0127.241.0127h.127c.042-.0084.084-.0169.127-.0254.05-.0931.118-.165.203-.2158.084-.0592.169-.11.254-.1523.093-.0424.177-.0889.254-.1397.084-.0508.152-.1227.203-.2158h.177c.017-.0254.047-.0593.089-.1016.051-.0423.098-.0846.14-.1269.042-.0423.076-.0847.102-.127.033-.0423.046-.0762.038-.1015.101-.0424.186-.0974.254-.1651.076-.0762.148-.1523.215-.2285.068-.0846.136-.165.203-.2412.068-.0762.149-.1397.242-.1904-.009-.017-.013-.0381-.013-.0635 0-.0762.021-.1354.063-.1777.051-.0424.064-.1185.039-.2286l.038.0127c.042 0 .072-.0127.089-.0381.016-.0253.029-.055.038-.0888.017-.0339.033-.0635.05-.0889.026-.0338.06-.055.102-.0635v-.0254c0-.1523.03-.2962.089-.4316.068-.1354.101-.2793.101-.4316 0-.0424-.004-.0804-.012-.1143-.009-.0423-.021-.0846-.038-.1269.076-.0847.122-.182.139-.292.026-.1101.038-.2243.038-.3428.009-.1185.017-.237.026-.3555.008-.1185.042-.2327.101-.3428 0-.0846-.029-.1438-.089-.1777l.153-.2031c.051-.0677.11-.1227.177-.1651h.026c.093 0 .173.0254.241.0762.076.0423.144.0931.203.1524.068.0507.136.1058.203.165.068.0508.144.0889.229.1143v.2793c.084.0338.148.0931.19.1777-.008.2285-.017.457-.025.6855v.6729c0 .3385.008.6771.025 1.0156.017.3301.06.6602.127.9902.093.0931.186.1862.28.2793.101.0931.177.1989.228.3174h.152c.297 0 .525-.0931.686-.2793.161-.1946.275-.4189.343-.6728.127-.0593.22-.1397.279-.2412.068-.1101.118-.2285.152-.3555.043-.127.077-.2539.102-.3809.034-.1354.085-.2539.152-.3554.009-.1016.013-.2032.013-.3047v-.3174c0-.4909-.025-.9775-.076-1.46-.043-.4908-.068-.9775-.076-1.4599-.034-.0677-.06-.1481-.077-.2412l-.038-.2793c-.008-.0931-.029-.1778-.063-.2539-.026-.0847-.068-.1439-.127-.1778.025-.0846.038-.1862.038-.3047 0-.11-.013-.22-.038-.33-.017-.1101-.038-.2201-.064-.3301.068-.0593.123-.1185.165-.1777.043-.0593.115-.0889.216-.0889.06 0 .11.0169.153.0508.05.0338.097.0719.139.1142.043.0423.085.0804.127.1143.051.0338.11.0508.178.0508h.051c.025-.0085.051-.0127.076-.0127.085.0846.152.1904.203.3174.059.1269.11.2623.152.4062.051.1354.102.2708.153.4063.059.1354.131.2581.216.3681 0 .0254-.005.0508-.013.0762v.0635c0 .0761.013.1523.038.2285.025.0762.047.1523.063.2285Zm19.259 1.0156c0 .4824-.034.9522-.101 1.4092-.06.4486-.148.9056-.267 1.3711-.11.0846-.178.1904-.203.3174-.025.1269-.068.2454-.127.3554-.051.0931-.119.1947-.203.3047-.085.1016-.178.2116-.279.3301-.102.11-.204.2243-.305.3428-.102.1185-.186.237-.254.3555-.254.0846-.436.2666-.546.5459-.135.0507-.275.11-.419.1777-.144.0592-.245.165-.305.3174-.313.1608-.609.347-.888.5586-.271.2031-.567.3808-.889.5332-.042.0423-.093.0761-.152.1015-.051.017-.106.0381-.165.0635-.051.0254-.102.055-.153.0889-.042.0423-.067.0931-.076.1523-.034 0-.059-.0084-.076-.0254-.008-.0084-.034-.0169-.076-.0254-.093.0508-.136.1312-.127.2412-.034-.0169-.081-.0253-.14-.0253-.101 0-.203.0296-.304.0888-.094.0677-.174.1354-.242.2031-.101.0508-.22.1016-.355.1524-.127.0508-.22.1354-.279.2539-.034-.0339-.085-.0508-.153-.0508-.076 0-.156.0212-.241.0635-.085.0508-.148.1058-.19.165-.119 0-.233.017-.343.0508-.102.0423-.208.0804-.318.1143-.11.0423-.22.0804-.33.1142-.101.0339-.211.0508-.33.0508-.067 0-.118-.0169-.152-.0508-.034-.0338-.076-.0634-.127-.0888-.042.0338-.118.0719-.229.1142-.101.0423-.177.0635-.228.0635-.093 0-.186-.0127-.279-.0381-.085-.0254-.174-.055-.267-.0889l-.267-.0888c-.084-.0254-.177-.0423-.279-.0508-.076-.0677-.169-.1397-.279-.2158-.102-.0677-.203-.0889-.305-.0635-.042-.127-.106-.237-.19-.3301-.085-.0931-.182-.1777-.292-.2539-.026-.0169-.055-.0338-.089-.0508-.026-.0084-.047-.0211-.064-.0381-.042-.0253-.08-.0761-.114-.1523-.034-.0762-.072-.1143-.114-.1143-.009 0-.021.0043-.038.0127-.009.0085-.017.0127-.026.0127-.017-.0761-.042-.1481-.076-.2158-.034-.0762-.093-.1227-.177-.1396-.068-.2201-.115-.4401-.14-.6602-.026-.22-.059-.4401-.102-.6601-.017-.0678-.038-.1482-.063-.2413-.017-.1015-.026-.1904-.026-.2666 0-.1269.017-.2793.051-.457.043-.1777.076-.3343.102-.4697.101-.4909.237-.9649.406-1.4219.169-.4655.351-.9267.546-1.3838.203-.457.41-.9098.622-1.3584.212-.4485.41-.9056.597-1.3711.034 0 .055-.0084.063-.0254l.038-.0634c.017-.0254.03-.0466.038-.0635.017-.0169.047-.0254.089-.0254v-.0381c-.008-.0508 0-.0931.026-.1269.033-.0339.042-.0889.025-.1651.135-.1523.25-.3216.343-.5078.093-.1947.186-.3851.279-.5713.102-.1862.207-.3682.317-.5459.11-.1777.25-.3301.419-.457v-.0889c-.008-.0423-.008-.0846 0-.1269.017-.0508.047-.0847.089-.1016.153-.1523.28-.3047.381-.457.102-.1524.203-.3005.305-.4444.11-.1523.228-.292.355-.4189.136-.1354.305-.2582.508-.3682.093-.0423.161-.1058.203-.1904.043-.0846.098-.1439.165-.1777.034-.017.068-.0254.102-.0254.042-.0085.08-.0212.114-.0381.144-.0423.288-.0931.432-.1524.144-.0677.296-.1015.457-.1015.203 0 .355.0592.457.1777.11.11.194.2455.254.4063.067.1608.122.33.165.5078.042.1777.11.3301.203.457.254.0169.512.0466.774.0889.263.0338.491.1396.686.3174.017.0084.038.0127.063.0127.043 0 .064-.017.064-.0508 0-.0339.021-.0508.063-.0508h.038c.254.1523.495.3216.724.5078.237.1777.47.3639.698.5586.042.0338.085.0677.127.1016.051.0253.093.0592.127.1015.042.0508.08.11.114.1778.043.0677.081.1269.115.1777.423.7363.706 1.5277.85 2.374.017.0931.03.182.038.2666.017.0846.026.1651.026.2412 0 .0762.017.127.05.1524.034.0169.051.0592.051.1269Zm-.977.6475c0-.3386-.043-.6644-.127-.9776.042-.0169.067-.0423.076-.0761.017-.0423.025-.0847.025-.127v-.0635l-.152-.2793c-.009-.1184-.034-.2285-.076-.33-.034-.1016-.076-.2032-.127-.3047-.051-.1016-.102-.2031-.153-.3047-.042-.1016-.071-.2116-.088-.3301-.136-.1016-.259-.2158-.369-.3428-.101-.1354-.194-.275-.279-.4189-.059-.0254-.114-.0423-.165-.0508-.051-.0085-.068-.055-.051-.1396-.152-.0424-.292-.1016-.419-.1778-.118-.0846-.237-.1777-.355-.2793-.195-.0423-.389-.0931-.584-.1523-.186-.0677-.377-.1016-.571-.1016-.136 0-.267.0254-.394.0762.042.0677.064.1439.064.2285 0 .0762.008.1524.025.2285.271.0677.436.2328.495.4951-.042.0254-.08.0593-.114.1016-.034.0339-.068.0677-.102.1016-.025.0254-.059.0508-.101.0761-.043.0254-.093.0381-.153.0381-.118 0-.211-.0211-.279-.0634-.059-.0424-.157-.0508-.292-.0254-.144-.127-.283-.2582-.419-.3936-.135-.1439-.288-.2708-.457-.3809-.025-.0846-.068-.1608-.127-.2285-.051-.0677-.106-.1312-.165-.1904-.051-.0677-.101-.1354-.152-.2031-.043-.0762-.064-.1608-.064-.2539 0-.0593.005-.1016.013-.127-.051-.0169-.089-.0254-.114-.0254-.068 0-.131.0254-.191.0762-.059.0423-.127.0719-.203.0889-.068.2031-.165.3808-.292.5332-.127.1523-.258.3004-.393.4443-.136.1439-.263.2962-.381.457-.11.1524-.191.3428-.241.5713-.271.3386-.521.7237-.749 1.1553-.229.4232-.403.8379-.521 1.2441-.195.2201-.347.4528-.457.6983-.11.2454-.174.5163-.19.8125-.043.0254-.077.0592-.102.1015l-.127.254c-.017.0423-.047.0761-.089.1015v.0635c0 .0677-.013.1312-.038.1904-.025.0508-.055.1016-.089.1524-.025.0507-.051.1015-.076.1523-.025.0423-.038.0931-.038.1524 0 .0677.017.1354.051.2031-.093.0169-.157.0677-.191.1523-.025.0762-.063.1439-.114.2031-.034.2709-.068.5459-.102.8252-.033.2793-.05.5544-.05.8252 0 .3132.034.6306.101.9522.076.0762.144.1608.203.2539.06.0931.119.182.178.2666.068.0846.14.1608.216.2285.076.0593.178.0973.305.1143 0 .0592.012.1015.038.1269.025.0254.046.0593.063.1016.178.0592.364.1058.559.1396.194.0423.389.0635.584.0635.135 0 .271-.0169.406-.0508.144-.0338.262-.1015.355-.2031.432-.0169.86-.1185 1.283-.3047.431-.1862.825-.3893 1.18-.6094h.267c.093-.1269.207-.2285.343-.3047.135-.0846.275-.1608.419-.2285.025-.0169.059-.0338.101-.0507.043-.017.076-.0339.102-.0508.093-.0677.186-.1439.279-.2285.102-.0847.203-.1651.305-.2413.169-.1269.343-.2496.52-.3681.178-.1185.347-.2455.508-.3809.169-.1354.326-.2793.47-.4316.152-.1608.279-.3386.381-.5332.05 0 .089-.0127.114-.0381.034-.0339.059-.0677.076-.1016.026-.0338.051-.0634.076-.0888.034-.0254.081-.0381.14-.0381 0-.0762.013-.1397.038-.1905.034-.0592.068-.11.102-.1523.042-.0508.08-.0973.114-.1396.042-.0424.08-.0974.114-.1651v-.3555c.136-.22.233-.4528.292-.6982.068-.2454.102-.4951.102-.749Zm18.091 4.2402c-.017.127-.064.2243-.14.292-.068.0677-.148.1312-.241.1904-.043-.0084-.085-.0127-.127-.0127-.034-.0084-.072-.0127-.115-.0127-.262-.0084-.512.0254-.749.1016-.228.0762-.465.1312-.711.165-.084.017-.165.0254-.241.0254-.067-.0084-.139-.0042-.216.0127-.27.0424-.558.0762-.863.1016-.305.0254-.609.0592-.914.1016-.305.0338-.605.0804-.901.1396-.288.0508-.559.127-.813.2285-.025-.0169-.051-.0338-.076-.0508-.025-.0253-.055-.038-.089-.038-.084 0-.165.0127-.241.038-.076.0254-.152.0339-.229.0254-.084.0508-.177.0889-.279.1143-.093.0169-.19.0338-.292.0508-.093.0084-.186.0254-.279.0508-.093.0253-.182.0719-.267.1396-.067-.0339-.152-.0508-.254-.0508-.093-.0084-.156-.0423-.19-.1015-.195.0931-.402.1523-.622.1777-.212.0254-.428.0338-.648.0254-.143-.0085-.309-.0296-.495-.0635-.186-.0338-.372-.0804-.558-.1396-.186-.0678-.36-.1439-.521-.2286-.161-.0931-.283-.2031-.368-.33-.059-.0847-.102-.1778-.127-.2793-.025-.1016-.085-.1778-.178-.2285.026-.1947.055-.3851.089-.5713.034-.1862.068-.3767.102-.5713.169-.1439.33-.2963.482-.4571.153-.1608.296-.33.432-.5078.161-.0761.309-.1692.444-.2793.144-.11.284-.22.419-.33.144-.1185.284-.2328.419-.3428.144-.11.296-.2074.457-.292.025-.0593.059-.1058.102-.1397.05-.0423.101-.0804.152-.1142.051-.0423.097-.0847.14-.127.042-.0508.072-.11.089-.1777.296-.1777.554-.402.774-.6729.22-.2708.364-.5755.432-.914-.144-.1185-.309-.1947-.496-.2285-.177-.0424-.363-.072-.558-.0889-.169-.0085-.347-.0085-.533 0-.178.0085-.36.0042-.546-.0127-.186.0592-.381.0973-.584.1143-.195.0169-.39.0338-.584.0507-.195.0085-.39.0339-.584.0762-.186.0339-.368.1016-.546.2031-.034 0-.068-.0042-.102-.0127-.025-.0084-.055-.0127-.089-.0127-.27-.0084-.524.0466-.761.1651-.237.11-.47.22-.698.3301-.017.0338-.026.0592-.026.0761 0 .0508.009.1016.026.1524.025.0423.038.0888.038.1396-.009.0085-.013.017-.013.0254 0 .0085-.004.0169-.013.0254-.008.0423-.021.0804-.038.1143-.008.0338-.021.0719-.038.1142-.093.2709-.144.5375-.152.7998-.009.2201-.009.4359 0 .6475.008.2116.008.4274 0 .6475-.017.2708-.06.5247-.127.7617.042.2031.08.4189.114.6474.034.2201.076.4401.127.6602.051.22.11.4359.178.6474.076.2032.173.3978.292.584-.009.017-.005.0297.012.0381.017.0085.034.0127.051.0127h.102c.042 0 .059.0169.05.0508.017.0254.03.0508.039.0762.008.0169.025.0338.05.0508.017.0253.017.0592 0 .1015-.008.1693-.05.3259-.127.4697-.076.1439-.122.3005-.139.4698-.102.0254-.195.0381-.28.0381-.143-.0085-.27-.0508-.38-.127-.11-.0677-.212-.1523-.305-.2539-.093-.1016-.182-.2031-.267-.3047-.084-.11-.177-.2031-.279-.2793-.059-.237-.118-.4993-.178-.7871-.05-.2878-.139-.5332-.266-.7363.034-.0762.05-.1693.05-.2793.009-.1693-.008-.3343-.05-.4951-.034-.1693-.043-.3386-.026-.5079 0-.0931.009-.1862.026-.2793.025-.0931.042-.1862.05-.2792.009-.1439-.008-.2836-.05-.419-.034-.1354-.047-.2751-.038-.4189.008-.0677.021-.1312.038-.1905.025-.0677.059-.1269.101-.1777-.042-.1016-.055-.1989-.038-.292.009-.1439.026-.2793.051-.4062.025-.127.042-.254.051-.3809 0-.0677-.005-.1312-.013-.1904-.008-.0677-.021-.1312-.038-.1905l-.114-.0381c-.051 0-.102.0127-.153.0381-.042.0254-.08.055-.114.0889-.034.0339-.063.0635-.089.0889-.025.0169-.051.0254-.076.0254h-.063c-.017-.0085-.034-.0127-.051-.0127-.017 0-.051.0169-.102.0507-.042.0339-.097.072-.165.1143-.059.0339-.118.0719-.178.1143-.059.0338-.105.055-.139.0634-.093-.0169-.169-.0465-.229-.0888-.05-.0508-.101-.0974-.152-.1397-.042-.0508-.089-.0931-.14-.1269-.05-.0423-.114-.0593-.19-.0508-.026-.0508-.038-.1058-.038-.1651-.009-.0592-.009-.1184 0-.1777v-.2031c.059-.11.139-.1989.241-.2666.093-.0762.195-.1397.305-.1904l.33-.1524c.11-.0508.211-.1142.304-.1904h.115c.152.0084.283-.0212.393-.0889.119-.0677.229-.1439.33-.2285.102-.0931.203-.1862.305-.2793.11-.0931.229-.165.355-.2158.094.0423.191.0804.292.1142.102.0254.208.0424.318.0508.11 0 .224-.0169.343-.0508.118-.0338.211-.0973.279-.1904.042.0169.076.0296.101.0381h.115c.127.0085.254-.0085.381-.0508.127-.0508.249-.11.368-.1777.169.0084.334 0 .495-.0254.169-.0339.334-.0677.495-.1016.169-.0338.334-.0634.495-.0888.169-.0339.339-.0466.508-.0381.279.0084.554-.017.825-.0762.271-.0592.546-.0804.825-.0635.195.0085.385.0254.572.0508.194.0169.389.0212.584.0127.11.0508.207.0973.292.1397.093.0338.207.0423.342.0253.271.2286.517.4952.737.7998v.2159c-.009.1946-.043.3851-.102.5713-.059.1862-.131.3724-.216.5586-.076.1777-.16.3554-.254.5332-.093.1692-.182.3385-.266.5078-.55.4993-1.1.9944-1.651 1.4853-.55.4909-1.117.9649-1.701 1.4219-.017.0846-.042.1608-.076.2285-.025.0677-.042.1397-.051.2158 0 .0423.005.0762.013.1016.059.0169.11.0508.152.1016.051.0423.068.1015.051.1777h.114c.043 0 .064.0169.064.0508l.203.0127c.322.0169.643.0084.965-.0254.321-.0339.643-.072.965-.1143.33-.0423.656-.0804.977-.1142.322-.0424.643-.0677.965-.0762.076-.0254.157-.0466.241-.0635.085-.0169.161-.0508.229-.1016h.038c.059 0 .101.017.127.0508.034.0339.08.055.139.0635.043 0 .085-.0085.127-.0254.051-.0169.102-.0296.153-.0381.118-.0338.241-.055.368-.0634.135-.0085.267-.0212.393-.0381.491-.0424.978-.0677 1.46-.0762.483-.0169.965-.0804 1.448-.1904.042.0592.101.1015.177.1269.077.0169.157.0381.242.0635.084.0169.16.0381.228.0635.076.0254.127.0761.153.1523Zm4.925-4.0498c0 .0846-.029.1397-.089.165-.059.0254-.088.0762-.088.1524 0 .0254.008.0465.025.0635.017.0169.025.0423.025.0761v.0508c-.101.4909-.249.9183-.444 1.2822-.186.364-.406.6983-.66 1.003-.254.3047-.542.5924-.863.8633-.314.2708-.652.5543-1.016.8505-.102.0847-.207.1693-.317.254-.102.0846-.199.1735-.292.2666l-.28.2666c-.008.0084-.055.0296-.139.0634-.085.0254-.136.0424-.153.0508-.118.0508-.245.11-.381.1777-.127.0678-.237.1524-.33.254-.169 0-.313.0253-.431.0761-.119.0508-.25.1185-.394.2032-.042 0-.08-.0085-.114-.0254-.026-.017-.055-.0339-.089-.0508-.034-.0169-.072-.0254-.114-.0254-.034-.0085-.081-.0042-.14.0127-.101-.1693-.211-.3132-.33-.4317-.118-.1184-.279-.1904-.482-.2158-.026-.1439-.085-.2539-.178-.3301-.093-.0846-.186-.1735-.279-.2666-.017-.0507-.03-.11-.039-.1777-.008-.0677-.025-.1312-.05-.1904-.026-.0593-.06-.11-.102-.1524-.042-.0423-.101-.0634-.178-.0634-.008-.0508.013-.0762.064-.0762.051 0 .076-.0212.076-.0635 0-.0508-.008-.1016-.025-.1523-.017-.0508-.026-.1058-.026-.1651 0-.0423.005-.0804.013-.1142.008-.0339.021-.072.038-.1143-.025-.2285-.038-.4613-.038-.6982 0-.4571.03-.9056.089-1.3457.068-.4486.101-.9014.101-1.3584 0-.2032-.012-.4063-.038-.6094-.017-.2031-.055-.402-.114-.5967-.195.0423-.389.0931-.584.1524-.195.0507-.377.1227-.546.2158-.093-.0593-.19-.0931-.292-.1016-.11-.0169-.216-.0423-.317-.0762-.059-.1184-.089-.2412-.089-.3681 0-.1185.021-.2328.063-.3428l.127-.3301c.203-.0423.407-.1058.61-.1904.194-.0846.393-.1608.596-.2285.068-.0169.153-.0381.254-.0635.11-.0254.187-.0465.229-.0635.059-.0254.097-.0719.114-.1396.025-.0762.059-.1397.102-.1904h.215c.051 0 .106.0042.166.0126.059 0 .114.0127.165.0381.304-.0761.609-.1227.914-.1396.304-.0254.617-.0593.939-.1016.034 0 .085-.0042.152-.0127l.216-.0381c.076-.0169.144-.0296.203-.038.068-.017.115-.0254.14-.0254.025 0 .038.0127.038.038h.216c.364 0 .719.0466 1.066.1397l1.041.2793c.144.1185.288.2327.432.3428.144.11.305.2073.482.292.043.1354.106.2454.191.33.093.0762.194.1608.305.2539.042.1101.097.2286.165.3555.076.1185.148.2412.215.3682.068.1269.127.2539.178.3808.051.1185.076.2328.076.3428Zm-1.18.1904c-.093-.1946-.182-.3977-.267-.6093-.085-.2116-.19-.4021-.317-.5713-.153-.0423-.309-.0931-.47-.1524-.152-.0677-.258-.1819-.317-.3427-.017.0084-.047.0127-.089.0127-.077 0-.144-.0297-.203-.0889-.06-.0593-.127-.0973-.204-.1143-.067-.0084-.16-.0211-.279-.0381-.11-.0169-.228-.0296-.355-.038-.127-.0085-.254-.017-.381-.0254-.119-.0085-.212-.0127-.28-.0127-.067 0-.139.0042-.215.0127-.068 0-.14.0042-.216.0127-.068 0-.11.0127-.127.038-.017.017-.051.0339-.102.0508-.042-.0169-.089-.0254-.139-.0254h-.153c-.177 0-.355.0297-.533.0889-.169.0508-.338.1227-.508.2158v.0508c0 .0677.03.1058.089.1143.059.0084.093.0423.102.1015-.043 0-.076.0043-.102.0127-.025 0-.038.0296-.038.0889 0 .0846.009.1777.026.2793.025.1016.038.2031.038.3047 0 .0761-.009.165-.026.2666-.017.1015-.059.1819-.127.2412.085.0762.127.1777.127.3047 0 .0846-.017.1735-.051.2666-.033.0931-.076.1735-.127.2412-.016.3555-.05.7152-.101 1.0791-.051.3639-.076.7236-.076 1.0791 0 .1777.008.3512.025.5205.026.1693.064.3385.114.5078.093.0931.191.1651.292.2158.11.0508.225.1016.343.1524v.0381c0 .0254-.017.0507-.051.0761-.033.0254-.05.0593-.05.1016 0 .0338.017.0508.05.0508.356-.1016.69-.2243 1.003-.3682.313-.1439.605-.3385.876-.584.026-.0254.051-.0381.076-.0381.017 0 .039.0043.064.0127.034.0085.063.017.089.0254l-.013-.0508c0-.0507.013-.0973.038-.1396.034-.0423.072-.0804.114-.1143l.127-.1142c.043-.0423.077-.0847.102-.127.068-.0169.114-.0508.14-.1015.033-.0508.088-.0762.165-.0762.017-.0931.063-.1608.139-.2031.076-.0508.123-.1228.14-.2158.169-.0931.317-.2074.444-.3428.136-.1354.258-.2793.368-.4317.119-.1523.229-.3089.331-.4697.101-.1693.207-.3301.317-.4824v-.0508c0-.1354.021-.2454.063-.3301.051-.0846.089-.1862.115-.3047Zm9.775-2.0058v.0508c-.059.0169-.089.0592-.089.1269-.093.0423-.19.0762-.292.1016-.101.0169-.199.0465-.292.0888-.093-.0084-.19-.0127-.292-.0127-.093-.0084-.186-.0126-.279-.0126-.254 0-.508.0084-.762.0253-.254.017-.508.017-.762 0-.118.0678-.249.1228-.393.1651-.136.0338-.267.0508-.394.0508-.101 0-.19-.0127-.266-.0381-.203.1015-.428.1862-.673.2539-.237.0677-.478.1354-.724.2031-.245.0593-.482.1312-.711.2158-.22.0762-.414.1862-.584.3301-.017.1185-.029.237-.038.3555-.008.11-.012.22-.012.3301 0 .1184.004.2285.012.33.017.1016.047.2032.089.3047.042.0169.089.0296.14.0381.059.0085.11.0127.152.0127.042 0 .085-.0042.127-.0127.042-.0169.072-.0465.089-.0889.127-.0169.254-.0211.381-.0127h.381c.127 0 .249-.0042.368-.0126.127-.0085.249-.0297.368-.0635.135-.0339.267-.055.394-.0635.135-.0085.266-.0169.393-.0254s.258-.0212.394-.0381c.135-.0254.275-.0719.419-.1396.11.0423.22.0634.33.0634.118 0 .232.0085.342.0254.06.0424.106.0889.14.1397.042.0508.064.11.064.1777 0 .1185-.043.237-.127.3555-.085.1185-.153.2285-.204.3301h-.139c-.203 0-.402.0296-.597.0888-.186.0508-.376.1143-.571.1905-.186.0677-.377.1312-.571.1904-.187.0508-.381.0762-.584.0762-.034 0-.055.0211-.064.0634 0 .0339-.008.0593-.025.0762-.043-.0084-.106-.0127-.191-.0127-.194 0-.381.0212-.558.0635-.178.0423-.36.0635-.546.0635h-.153c-.05-.0085-.101-.017-.152-.0254-.042.0677-.097.1142-.165.1396-.068.017-.131.0508-.19.1016-.026.0762-.043.1693-.051.2793 0 .11-.004.2243-.013.3428 0 .11-.008.2158-.025.3173-.017.1016-.051.182-.102.2413.009.0423.043.0592.102.0507.059-.0169.089.0085.089.0762 0 .0762-.009.1566-.026.2412-.017.0847-.025.1693-.025.2539 0 .1608.017.3386.051.5332.042.1862.101.3597.177.5205.085.1608.195.2963.33.4063.136.1016.305.1523.508.1523.136 0 .263-.0254.381-.0761.119-.0508.216-.1355.292-.2539l.064-.0127c.033 0 .063.0042.088.0127.034.0084.068.0127.102.0127.051 0 .114-.0297.19-.0889.085-.0677.174-.1439.267-.2285.102-.0847.203-.1651.305-.2412.101-.0847.199-.1439.292-.1778.059-.1185.114-.237.165-.3554.059-.1185.144-.2116.254-.2793v-.3682c.084-.0931.173-.1777.266-.2539.102-.0762.178-.1735.229-.292.042.0169.08.0296.114.0381.042.0084.085.0127.127.0127.042 0 .085-.0043.127-.0127.051-.0085.097-.0212.14-.0381.067.0931.118.1989.152.3174.042.11.093.2158.152.3174-.076.1523-.165.3343-.266.5459-.102.2115-.212.4231-.33.6347-.119.2116-.246.4147-.381.6094-.127.1862-.254.3301-.381.4316-.026.0254-.081.0551-.165.0889-.093.0677-.178.1312-.254.1904-.076.0677-.148.1439-.216.2286-.245.0761-.482.1777-.711.3046-.22.127-.44.2497-.66.3682-.102-.0254-.212-.0381-.33-.0381-.102 0-.203.0042-.305.0127-.101.0169-.211.0254-.33.0254-.034-.0423-.084-.0719-.152-.0889-.059-.0084-.081-.0507-.064-.1269-.287-.0169-.52-.0973-.698-.2412-.178-.1354-.33-.3047-.457-.5078-.118-.2032-.216-.4232-.292-.6602-.076-.237-.156-.4655-.241-.6855v-.0381c0-.0423.017-.0677.051-.0762.034-.0085.05-.0339.05-.0762 0-.0169-.004-.0296-.012-.0381-.026-.0931-.047-.1735-.064-.2412-.017-.0677-.025-.1481-.025-.2412 0-.1354.008-.2666.025-.3935.017-.1355.026-.2709.026-.4063 0-.1354-.017-.2539-.051-.3555.034-.0423.063-.0973.089-.165.017-.0762.029-.1523.038-.2285.008-.0762.013-.1524.013-.2285.008-.0762.021-.1439.038-.2031-.034-.0931-.064-.1736-.089-.2413-.026-.0761-.038-.165-.038-.2666v-.0888c.084-.1439.156-.292.215-.4444.06-.1523.123-.3089.191-.4697v-.0381c0-.2454-.009-.4909-.025-.7363-.017-.2454-.026-.4909-.026-.7363v-.2412c0-.0847.004-.1651.013-.2413.068-.0338.118-.0804.152-.1396s.085-.1058.153-.1397h.418l.077-.1269c.025-.0423.042-.0889.05-.1397.094-.0253.182-.0592.267-.1015.093-.0508.178-.1016.254-.1524.118-.0677.224-.1269.317-.1777.102-.0592.199-.1058.292-.1396.102-.0424.208-.0762.318-.1016.11-.0254.237-.0466.381-.0635.067 0 .11-.0127.127-.0381.025-.0254.059-.055.101-.0888.102.0169.203.0338.305.0507.101.0085.203.0127.304.0127.204 0 .394-.038.572-.1142.254 0 .503-.0042.749-.0127.254-.0085.508-.0127.761-.0127.221 0 .441.0085.661.0254.22.0169.435.0465.647.0889.076-.0254.161-.0381.254-.0381.102 0 .203.0127.305.0381.11.0169.215.0169.317 0 .009.093.03.1735.064.2412.042.0592.063.1311.063.2158Zm15.628 5.8652c-.017.127-.064.2243-.14.292-.067.0677-.148.1312-.241.1904-.042-.0084-.085-.0127-.127-.0127-.034-.0084-.072-.0127-.114-.0127-.262-.0084-.512.0254-.749.1016-.229.0762-.466.1312-.711.165-.085.017-.165.0254-.241.0254-.068-.0084-.14-.0042-.216.0127-.271.0424-.559.0762-.863.1016-.305.0254-.61.0592-.914.1016-.305.0338-.606.0804-.902.1396-.288.0508-.558.127-.812.2285-.026-.0169-.051-.0338-.077-.0508-.025-.0253-.055-.038-.088-.038-.085 0-.165.0127-.242.038-.076.0254-.152.0339-.228.0254-.085.0508-.178.0889-.279.1143-.093.0169-.191.0338-.292.0508-.093.0084-.187.0254-.28.0508-.093.0253-.182.0719-.266.1396-.068-.0339-.153-.0508-.254-.0508-.093-.0084-.157-.0423-.191-.1015-.194.0931-.402.1523-.622.1777-.211.0254-.427.0338-.647.0254-.144-.0085-.309-.0296-.495-.0635-.186-.0338-.373-.0804-.559-.1396-.186-.0678-.36-.1439-.52-.2286-.161-.0931-.284-.2031-.369-.33-.059-.0847-.101-.1778-.126-.2793-.026-.1016-.085-.1778-.178-.2285.025-.1947.055-.3851.089-.5713.034-.1862.067-.3767.101-.5713.169-.1439.33-.2963.483-.4571.152-.1608.296-.33.431-.5078.161-.0761.309-.1692.445-.2793.143-.11.283-.22.419-.33.143-.1185.283-.2328.418-.3428.144-.11.297-.2074.458-.292.025-.0593.059-.1058.101-.1397.051-.0423.102-.0804.152-.1142.051-.0423.098-.0847.14-.127.042-.0508.072-.11.089-.1777.296-.1777.554-.402.774-.6729.22-.2708.364-.5755.432-.914-.144-.1185-.309-.1947-.495-.2285-.178-.0424-.364-.072-.559-.0889-.169-.0085-.347-.0085-.533 0-.178.0085-.36.0042-.546-.0127-.186.0592-.381.0973-.584.1143-.194.0169-.389.0338-.584.0507-.194.0085-.389.0339-.584.0762-.186.0339-.368.1016-.546.2031-.034 0-.067-.0042-.101-.0127-.026-.0084-.055-.0127-.089-.0127-.271-.0084-.525.0466-.762.1651-.237.11-.47.22-.698.3301-.017.0338-.025.0592-.025.0761 0 .0508.008.1016.025.1524.025.0423.038.0888.038.1396-.008.0085-.013.017-.013.0254 0 .0085-.004.0169-.012.0254-.009.0423-.022.0804-.038.1143-.009.0338-.022.0719-.039.1142-.093.2709-.143.5375-.152.7998-.008.2201-.008.4359 0 .6475.009.2116.009.4274 0 .6475-.017.2708-.059.5247-.127.7617.042.2031.081.4189.114.6474.034.2201.077.4401.127.6602.051.22.11.4359.178.6474.076.2032.174.3978.292.584-.008.017-.004.0297.013.0381.017.0085.034.0127.051.0127h.101c.042 0 .059.0169.051.0508.017.0254.03.0508.038.0762.008.0169.025.0338.051.0508.017.0253.017.0592 0 .1015-.009.1693-.051.3259-.127.4697-.076.1439-.123.3005-.14.4698-.101.0254-.194.0381-.279.0381-.144-.0085-.271-.0508-.381-.127-.11-.0677-.212-.1523-.305-.2539-.093-.1016-.182-.2031-.266-.3047-.085-.11-.178-.2031-.28-.2793-.059-.237-.118-.4993-.177-.7871-.051-.2878-.14-.5332-.267-.7363.034-.0762.051-.1693.051-.2793.008-.1693-.009-.3343-.051-.4951-.034-.1693-.042-.3386-.025-.5079 0-.0931.008-.1862.025-.2793.026-.0931.042-.1862.051-.2792.008-.1439-.009-.2836-.051-.419-.034-.1354-.046-.2751-.038-.4189.009-.0677.021-.1312.038-.1905.026-.0677.059-.1269.102-.1777-.043-.1016-.055-.1989-.038-.292.008-.1439.025-.2793.05-.4062.026-.127.043-.254.051-.3809 0-.0677-.004-.1312-.013-.1904-.008-.0677-.021-.1312-.038-.1905l-.114-.0381c-.051 0-.101.0127-.152.0381-.043.0254-.081.055-.114.0889-.034.0339-.064.0635-.089.0889-.026.0169-.051.0254-.077.0254h-.063c-.017-.0085-.034-.0127-.051-.0127-.017 0-.051.0169-.101.0507-.043.0339-.098.072-.165.1143-.06.0339-.119.0719-.178.1143-.059.0338-.106.055-.14.0634-.093-.0169-.169-.0465-.228-.0888-.051-.0508-.102-.0974-.153-.1397-.042-.0508-.088-.0931-.139-.1269-.051-.0423-.115-.0593-.191-.0508-.025-.0508-.038-.1058-.038-.1651-.008-.0592-.008-.1184 0-.1777v-.2031c.059-.11.14-.1989.241-.2666.094-.0762.195-.1397.305-.1904l.33-.1524c.11-.0508.212-.1142.305-.1904h.114c.152.0084.284-.0212.394-.0889.118-.0677.228-.1439.33-.2285.101-.0931.203-.1862.304-.2793.11-.0931.229-.165.356-.2158.093.0423.19.0804.292.1142.101.0254.207.0424.317.0508.11 0 .225-.0169.343-.0508.119-.0338.212-.0973.279-.1904.043.0169.077.0296.102.0381h.114c.127.0085.254-.0085.381-.0508.127-.0508.25-.11.368-.1777.169.0084.335 0 .495-.0254.17-.0339.335-.0677.495-.1016.17-.0338.335-.0634.496-.0888.169-.0339.338-.0466.507-.0381.28.0084.555-.017.826-.0762.27-.0592.545-.0804.825-.0635.194.0085.385.0254.571.0508.195.0169.389.0212.584.0127.11.0508.207.0973.292.1397.093.0338.207.0423.343.0253.271.2286.516.4952.736.7998v.2159c-.008.1946-.042.3851-.101.5713-.06.1862-.132.3724-.216.5586-.076.1777-.161.3554-.254.5332-.093.1692-.182.3385-.267.5078-.55.4993-1.1.9944-1.65 1.4853-.55.4909-1.117.9649-1.701 1.4219-.017.0846-.043.1608-.076.2285-.026.0677-.043.1397-.051.2158 0 .0423.004.0762.012.1016.06.0169.11.0508.153.1016.051.0423.067.1015.051.1777h.114c.042 0 .063.0169.063.0508l.203.0127c.322.0169.644.0084.965-.0254.322-.0339.643-.072.965-.1143.33-.0423.656-.0804.978-.1142.321-.0424.643-.0677.964-.0762.077-.0254.157-.0466.242-.0635.084-.0169.161-.0508.228-.1016h.038c.06 0 .102.017.127.0508.034.0339.081.055.14.0635.042 0 .085-.0085.127-.0254.051-.0169.101-.0296.152-.0381.119-.0338.241-.055.368-.0634.136-.0085.267-.0212.394-.0381.491-.0424.977-.0677 1.46-.0762.482-.0169.965-.0804 1.447-.1904.042.0592.102.1015.178.1269.076.0169.156.0381.241.0635.085.0169.161.0381.229.0635.076.0254.127.0761.152.1523ZM61.2812 58.3262c.5756 0 1.132.0359 1.6695.1079.5417.0677 1.0262.1862 1.4536.3555.4316.165.785.3893 1.0601.6728.2793.2835.4422.6369.4887 1.0601l-1.6504.457c0-.2539-.0867-.4613-.2602-.6221-.1693-.165-.3957-.2941-.6792-.3872-.2793-.0973-.6009-.165-.9649-.2031-.3597-.0381-.7321-.0571-1.1172-.0571-.3766 0-.7469.0169-1.1108.0507-.3639.0339-.6919.0974-.9839.1905-.2877.0931-.5205.2221-.6982.3872-.1778.165-.2666.3787-.2666.6411v1.5107h7.7314v3.2881c0 .2835-.0635.5375-.1904.7617-.1227.2201-.2941.4126-.5142.5777-.2158.1608-.4739.2983-.7744.4126-.2962.11-.6178.1989-.9648.2666-.3428.0677-.7046.1163-1.0855.146-.3808.0296-.7617.0444-1.1426.0444-.3893 0-.7722-.0148-1.1489-.0444-.3766-.0297-.7342-.0783-1.0727-.146-.3386-.0677-.6538-.1566-.9458-.2666-.2878-.1143-.5417-.2518-.7617-.4126-.2201-.1651-.3978-.3576-.5333-.5777-.1354-.22-.2179-.4739-.2475-.7617l1.6504-.457c0 .2624.0888.4761.2666.6411.1777.165.4105.2941.6982.3872.292.0931.62.1566.9839.1904.3639.0339.7342.0508 1.1108.0508.3851 0 .7575-.0169 1.1172-.0508.364-.038.6856-.1036.9649-.1967.2835-.0974.5099-.2286.6792-.3936.1735-.165.2602-.3745.2602-.6284v-1.5488h-7.7314v-3.25c0-.2836.0613-.5332.1841-.7491.1269-.22.2983-.4104.5141-.5713.2201-.165.4803-.3025.7808-.4125.3004-.1143.6242-.2053.9712-.273.3512-.0677.7173-.1164 1.0981-.146.3851-.0296.7723-.0444 1.1616-.0444Zm10.5372 2.3232c.3512 0 .7045.0169 1.06.0508.3555.0338.6961.0889 1.022.165.3258.0762.6305.1714.9141.2857.2835.1142.5289.2518.7363.4126.2116.1608.3766.347.4951.5586.1185.2073.1777.4401.1777.6982l-1.625.2412c0-.1819-.0783-.3449-.2348-.4887-.1566-.1482-.364-.2709-.6221-.3682-.2581-.1016-.5544-.1777-.8887-.2285-.3343-.055-.6792-.0825-1.0346-.0825-.3386 0-.6729.0253-1.003.0761-.33.0466-.6263.1185-.8886.2158-.2582.0974-.4698.2201-.6348.3682-.1608.1439-.2412.3132-.2412.5078v2.6406c0 .1947.0804.364.2412.5079.165.1396.3766.2581.6348.3554.2623.0931.5586.163.8886.2095.3301.0466.6644.0698 1.003.0698.3554 0 .7003-.0254 1.0346-.0761.3343-.0508.6306-.1228.8887-.2159.2581-.0973.4655-.2158.6221-.3554.1565-.1439.2348-.309.2348-.4952l1.625.4063c0 .2285-.0592.438-.1777.6284-.1185.1904-.2835.3618-.4951.5142-.2074.1481-.4528.2772-.7363.3872-.2836.11-.5883.201-.9141.2729-.3259.072-.6665.1249-1.022.1587-.3555.0381-.7088.0572-1.06.0572-.3513 0-.7046-.0191-1.0601-.0572-.3512-.0338-.6898-.0867-1.0156-.1587-.3259-.0719-.6306-.1629-.9141-.2729-.2793-.11-.5247-.2391-.7363-.3872-.2074-.1524-.3703-.3216-.4888-.5078-.1185-.1905-.1777-.4021-.1777-.6348v-3.2881c0-.2581.0592-.4909.1777-.6982.1185-.2116.2814-.3978.4888-.5586.2116-.1608.457-.2984.7363-.4126.2835-.1143.5882-.2095.9141-.2857.3258-.0761.6644-.1312 1.0156-.165.3555-.0339.7088-.0508 1.0601-.0508Zm13.0761 4.7608c-.1058-.0931-.2369-.1841-.3935-.273-.1566-.0889-.3491-.1671-.5777-.2349-.2285-.0719-.5014-.129-.8188-.1713-.3132-.0466-.6813-.0699-1.1045-.0699-.3766 0-.7342.0085-1.0728.0254-.3343.0127-.6284.055-.8823.127-.2539.0677-.4549.1777-.603.3301-.1481.1523-.2222.3639-.2222.6347v.8125c.3724.0593.7829.1079 1.2315.146.4485.0381.9479.0571 1.498.0571.4401 0 .9077-.0148 1.4029-.0444.4993-.0338 1.0135-.0994 1.5424-.1968v-1.1425Zm-2.8564-4.6465c.2116 0 .4676.0106.7681.0317.3004.0212.6136.0593.9394.1143.3259.0507.6475.1227.9648.2158.3217.0889.6094.2073.8633.3555.2582.1438.4655.3173.6221.5205.1566.2031.2349.4422.2349.7173v4.913c-.3555.072-.7575.1333-1.2061.1841-.3851.0466-.8442.0889-1.3774.127-.5332.0381-1.1278.0571-1.7837.0571-.6517 0-1.3457-.0275-2.0821-.0825-.7321-.055-1.498-.1502-2.2978-.2857v-2.2851c0-.2455.0571-.4592.1714-.6411.1185-.1862.2793-.3449.4824-.4761.2031-.1312.4422-.2391.7173-.3237.2751-.0847.5713-.1524.8887-.2032.3173-.0507.6474-.0846.9902-.1015.3428-.0212.6855-.0318 1.0283-.0318.5205 0 .9627.0339 1.3267.1016.3681.0635.6728.1333.914.2095.2793.0931.51.1967.6919.311v-1.0283c0-.1735-.0423-.3216-.1269-.4443-.0847-.127-.1989-.2328-.3428-.3174-.1439-.0889-.3089-.1587-.4951-.2095-.1862-.055-.3809-.0973-.584-.127-.2031-.0296-.4105-.0486-.6221-.0571-.2073-.0085-.402-.0127-.584-.0127-.1904 0-.3935.0064-.6093.0191-.2158.0084-.4317.0275-.6475.0571-.2116.0296-.4168.0719-.6157.1269-.1947.0508-.3682.1206-.5205.2095-.1524.0889-.2751.1968-.3682.3237-.0888.1228-.1333.2709-.1333.4444l-1.5742-.4063c0-.2835.0698-.5289.2095-.7363.1396-.2116.3237-.3914.5522-.5395.2328-.1482.4994-.2688.7998-.3619.3005-.0973.6115-.1714.9331-.2221.3259-.055.6496-.0931.9712-.1143.3216-.0211.6221-.0317.9014-.0317Zm6.6015 1.9931c-.0169-.1354-.0571-.2496-.1206-.3427-.0592-.0931-.1248-.1693-.1967-.2286-.0804-.0719-.1693-.1311-.2666-.1777l.7109-1.2441c.1566.055.3132.129.4697.2221.1312.0804.2687.1841.4126.3111.1481.1227.2772.275.3872.457.2116-.1354.4274-.2624.6475-.3809.2243-.1227.457-.2285.6982-.3173.2455-.0889.5015-.1587.7681-.2095.2708-.055.5607-.0825.8696-.0825.6517 0 1.2103.055 1.6758.165.4697.1058.8527.2666 1.1489.4824.3005.2116.5205.4761.6602.7935.1396.3174.2095.6877.2095 1.1108V68h-1.6631v-4.291c0-.237-.0318-.4401-.0952-.6094-.0635-.1735-.1503-.3195-.2603-.438-.1058-.1227-.2306-.2221-.3745-.2983-.1439-.0762-.2941-.1333-.4507-.1714-.1523-.0423-.3089-.0698-.4697-.0825-.1608-.017-.3132-.0254-.457-.0254-.2709 0-.529.019-.7745.0571-.2454.0381-.4781.091-.6982.1587-.22.0635-.4274.1397-.6221.2285-.1946.0889-.3766.182-.5459.2793V68h-1.6631v-5.2432Zm20.4264-1.9931c.652 0 1.211.055 1.676.165.466.1058.847.2666 1.143.4824.3.2116.518.4761.654.7935.139.3174.209.6877.209 1.1108V68h-1.663v-4.291c0-.237-.032-.4401-.095-.6094-.064-.1735-.15-.3195-.261-.438-.105-.1227-.23-.2221-.374-.2983-.144-.0762-.294-.1333-.451-.1714-.152-.0423-.309-.0698-.469-.0825-.161-.017-.314-.0254-.457-.0254-.271 0-.529.019-.775.0571-.245.0381-.478.091-.698.1587-.22.0635-.428.1397-.622.2285-.195.0889-.377.182-.546.2793V68h-1.663v-9.6611h1.663v3.2627c.195-.1185.393-.2286.597-.3301.203-.1016.414-.1904.634-.2666.225-.0762.46-.1354.705-.1778.25-.0423.514-.0634.793-.0634Zm10.03 0c.216 0 .476.0106.78.0317.305.0212.62.0593.946.1143.33.0507.656.1248.978.2221.321.0931.609.2137.863.3619.258.1481.466.3279.622.5395.161.2074.241.4528.241.7363v2.1455h-7.274v1.625c.512.072 1.005.1228 1.479.1524.474.0254.929.0381 1.365.0381.664 0 1.265-.0254 1.802-.0762.542-.0508 1.01-.1079 1.403-.1714.453-.0719.861-.1544 1.225-.2475v1.4091c-.804.127-1.58.218-2.329.273-.745.055-1.445.0825-2.101.0825-.66 0-1.259-.0169-1.797-.0508-.537-.0381-.998-.0804-1.383-.1269-.449-.0508-.853-.1101-1.213-.1778v-4.875c0-.2835.07-.5289.21-.7363.139-.2116.325-.3914.558-.5395.233-.1482.5-.2688.8-.3619.305-.0973.62-.1714.946-.2221.326-.055.649-.0931.971-.1143.326-.0211.628-.0317.908-.0317Zm-2.844 3.1357h5.7v-.7363c0-.1735-.042-.3216-.127-.4443-.084-.127-.199-.2328-.343-.3174-.139-.0847-.304-.1524-.495-.2032-.186-.055-.381-.0952-.584-.1206-.203-.0296-.408-.0486-.615-.0571-.204-.0085-.396-.0127-.578-.0127-.19 0-.396.0042-.616.0127-.216.0085-.434.0275-.654.0571-.22.0297-.431.072-.634.127-.203.0508-.383.1206-.54.2095-.156.0846-.281.1904-.374.3173-.093.1228-.14.2709-.14.4444v.7236Zm14.853-3.1357c0 .4401-.014.8992-.044 1.3774-.03.474-.087.9627-.171 1.4663h-1.536c.038-.1439.074-.3004.107-.4697.026-.1439.049-.311.07-.5015.026-.1946.038-.3999.038-.6157-.372.0085-.681.0444-.926.1079-.242.0593-.443.1312-.603.2158-.161.0804-.292.163-.394.2476-.102.0846-.193.1523-.273.2031V68h-1.625v-5.2432c-.017-.1354-.057-.2496-.121-.3427-.059-.0931-.122-.1693-.19-.2286-.076-.0719-.163-.1311-.26-.1777l.673-1.2441c.156.055.311.129.463.2221.131.0804.269.1841.413.3111.148.1227.279.275.393.457.216-.1481.415-.2729.597-.3745.182-.1058.357-.1947.527-.2666.173-.0719.351-.127.533-.165.186-.0424.389-.0762.609-.1016.225-.0254.474-.0423.749-.0508.28-.0127.603-.0233.971-.0317Zm6.018 0c.216 0 .476.0106.781.0317.304.0212.62.0593.946.1143.33.0507.656.1248.977.2221.322.0931.61.2137.863.3619.259.1481.466.3279.622.5395.161.2074.242.4528.242.7363v2.1455h-7.275v1.625c.512.072 1.005.1228 1.479.1524.474.0254.929.0381 1.365.0381.664 0 1.265-.0254 1.803-.0762.541-.0508 1.009-.1079 1.403-.1714.452-.0719.861-.1544 1.225-.2475v1.4091c-.804.127-1.581.218-2.33.273-.745.055-1.445.0825-2.101.0825-.66 0-1.259-.0169-1.796-.0508-.538-.0381-.999-.0804-1.384-.1269-.449-.0508-.853-.1101-1.213-.1778v-4.875c0-.2835.07-.5289.21-.7363.14-.2116.326-.3914.559-.5395.232-.1482.499-.2688.799-.3619.305-.0973.62-.1714.946-.2221.326-.055.65-.0931.971-.1143.326-.0211.629-.0317.908-.0317Zm-2.844 3.1357h5.7v-.7363c0-.1735-.042-.3216-.126-.4443-.085-.127-.199-.2328-.343-.3174-.14-.0847-.305-.1524-.495-.2032-.187-.055-.381-.0952-.584-.1206-.203-.0296-.409-.0486-.616-.0571-.203-.0085-.396-.0127-.578-.0127-.19 0-.395.0042-.615.0127-.216.0085-.434.0275-.654.0571-.22.0297-.432.072-.635.127-.203.0508-.383.1206-.54.2095-.156.0846-.281.1904-.374.3173-.093.1228-.14.2709-.14.4444v.7236Z" fill="#000"/>
  <path stroke="#000" d="M75.5 86.5h49v49h-49z"/>
  <g fill="#000">
    <path d="M25.624 170.707c-.0315-.252-.0441-.503-.0378-.752.0063-.252.0252-.485.0567-.699h.5389l.1844.713c.0252.108.0536.19.0851.246.0315.054.0819.103.1512.147.082.05.208.105.3782.165.1734.06.3719.09.5957.09.3309 0 .5814-.076.7516-.227.1733-.151.26-.351.26-.6 0-.151-.0331-.279-.0993-.383-.063-.107-.156-.203-.2789-.288-.1229-.086-.2757-.167-.4585-.246-.1828-.079-.3924-.166-.6288-.26-.4223-.177-.7689-.375-1.04-.596-.271-.224-.4065-.551-.4065-.983 0-.255.0488-.479.1465-.671.0977-.196.2333-.358.4066-.487.1765-.133.3876-.232.6334-.298.2459-.066.5153-.099.8084-.099.2742 0 .5594.029.8556.089.2994.06.5453.133.7375.218.0126.227.011.458-.0047.695-.0158.233-.0441.463-.0851.69h-.5058l-.1608-.643c-.022-.088-.052-.162-.0898-.222-.0378-.06-.0961-.114-.1749-.161-.0693-.041-.1607-.079-.2742-.113-.1103-.035-.2411-.054-.3923-.057-.2742-.003-.5043.058-.6902.184-.1828.126-.2742.322-.2742.586 0 .161.0347.297.104.407.0725.107.167.2.2836.279.1166.079.249.148.3971.208.1513.06.3057.12.4633.18.2175.081.4286.171.6335.269.2048.098.3844.213.5389.345.1575.132.2836.288.3781.468.0977.18.1466.392.1466.638 0 .252-.052.478-.156.676-.1009.196-.2443.361-.4302.497-.1828.132-.4034.233-.6618.302-.2584.07-.5421.104-.8509.104-.375 0-.7233-.044-1.0447-.132-.3183-.088-.5815-.181-.7895-.279Zm4.9535-2.335c0-.416.0551-.801.1654-1.154.1135-.356.2789-.662.4964-.917.2174-.258.49-.46.8178-.605.3278-.145.7044-.217 1.1298-.217.2994 0 .602.033.9077.099.3088.066.5562.146.7421.241.0158.246.0142.512-.0047.799-.0189.283-.0488.548-.0898.794h-.52l-.1986-.789c-.022-.089-.0457-.163-.0709-.223-.0252-.063-.0677-.119-.1276-.17-.0788-.063-.1828-.115-.312-.156-.1261-.044-.2695-.066-.4302-.066-.4412 0-.7831.178-1.0258.534-.2427.356-.364.894-.364 1.612 0 .753.1355 1.318.4065 1.693.2742.375.6587.562 1.1535.562.2962 0 .561-.058.7942-.175.2332-.116.4223-.254.5673-.411l.2883.26c-.1513.312-.3971.562-.7374.752-.3373.185-.7375.278-1.2008.278-.3939 0-.7421-.067-1.0447-.203-.2994-.138-.5484-.329-.7469-.572-.1954-.242-.3435-.532-.4444-.87-.1008-.337-.1512-.702-.1512-1.096Zm7.1473 2.07c.2269 0 .4569-.042.6901-.127.2333-.089.4318-.201.5957-.336v-1.262l-.9029.08c-.3814.032-.6744.118-.8793.26-.2017.142-.3025.358-.3025.648 0 .233.0646.414.1938.543.1323.13.334.194.6051.194Zm2.184.638c-.2269 0-.4129-.056-.5579-.17-.1449-.116-.2458-.285-.3025-.506-.1985.215-.4459.386-.7422.516-.2962.126-.6129.189-.9502.189-.2143 0-.4144-.029-.6003-.085-.186-.057-.3467-.139-.4822-.246-.1324-.11-.2379-.246-.3167-.407-.0757-.164-.1135-.35-.1135-.558 0-.274.063-.504.1891-.69.1261-.186.2884-.335.4869-.449.2017-.113.4255-.198.6713-.255.249-.057.4932-.095.7327-.114l1.0873-.089v-.639c0-.485-.0977-.827-.2931-1.025-.1922-.199-.4869-.298-.884-.298-.2994 0-.583.05-.8509.151-.2647.098-.5106.252-.7375.463l-.2411-.241c.0599-.179.1576-.339.2931-.477.1355-.142.2947-.26.4775-.355.1859-.094.3939-.165.624-.212.23-.051.4696-.076.7185-.076.6272 0 1.0983.159 1.4135.477.3151.316.4727.799.4727 1.452v2.675c0 .101.0221.175.0662.222.0473.045.115.071.2033.081l.5436.047v.449c-.0788.029-.2127.063-.4018.104-.186.044-.3546.066-.5058.066Zm4.2631-.562V171h-2.6237v-.482l.5815-.09c.0819-.013.145-.044.1891-.095.0473-.05.0709-.116.0709-.198v-3.522c0-.085-.0221-.153-.0662-.203-.041-.051-.1024-.082-.1844-.095l-.657-.094v-.464c.2552-.078.5278-.138.8178-.179.2931-.044.5672-.068.8225-.071l.1655.165.0709.582c.2616-.278.5562-.473.884-.586.3277-.114.6602-.171.9974-.171.6272 0 1.0542.183 1.2811.549.2269.365.3404.874.3404 1.527v2.567c0 .082.022.148.0662.198.0472.047.1103.077.1891.09l.5814.09V171h-2.6189v-.482l.5153-.09c.0725-.013.1323-.041.1796-.085.0504-.047.0757-.115.0757-.203v-2.383c0-.52-.071-.908-.2128-1.163-.1418-.258-.4176-.387-.8272-.387-.249 0-.4948.037-.7375.113-.2427.076-.4664.191-.6713.345v3.47c0 .082.0221.148.0662.198.0441.048.1056.079.1844.095l.52.09ZM80.3536 168.354c.1952-.196.1952-.512 0-.708l-3.182-3.182c-.1953-.195-.5119-.195-.7071 0-.1953.196-.1953.512 0 .708L79.2929 168l-2.8284 2.828c-.1953.196-.1953.512 0 .708.1952.195.5118.195.7071 0l3.182-3.182ZM56 168.5h24v-1H56v1ZM138.354 168.354c.195-.196.195-.512 0-.708l-3.182-3.182c-.196-.195-.512-.195-.708 0-.195.196-.195.512 0 .708l2.829 2.828-2.829 2.828c-.195.196-.195.512 0 .708.196.195.512.195.708 0l3.182-3.182ZM114 168.5h24v-1h-24v1ZM93.5309 169.033c0 .262-.0504.52-.1513.776-.1008.255-.2552.482-.4632.68-.208.199-.4743.36-.7989.483-.3247.123-.7091.184-1.1535.184-.4979 0-.947-.065-1.3473-.194-.4002-.132-.7232-.272-.9691-.421-.0126-.302-.011-.609.0048-.921.0157-.316.0441-.624.0851-.927h.6287l.1749 1.106c.0094.051.0252.104.0473.161.0252.057.0661.113.1229.17.1229.126.3025.241.5389.345.2363.104.5011.156.7942.156.4601 0 .8099-.113 1.0494-.34.2427-.23.364-.539.364-.927 0-.227-.041-.422-.1229-.586-.0819-.164-.1954-.309-.3404-.435-.1449-.126-.3214-.242-.5294-.35-.2049-.107-.4318-.217-.6807-.33-.2301-.108-.4649-.224-.7044-.35-.2395-.126-.4554-.274-.6476-.445-.1923-.17-.3514-.372-.4775-.605-.1229-.236-.1844-.513-.1844-.832 0-.28.052-.539.156-.775.104-.24.2569-.444.4586-.615.2017-.173.4538-.308.7564-.406.3025-.098.6523-.147 1.0494-.147.3435 0 .6902.037 1.04.109.353.069.6524.164.8982.284.0221.312.0252.614.0094.907-.0126.29-.0393.572-.0803.847h-.6051l-.1844-.97c-.0126-.059-.0346-.118-.0662-.174-.0283-.06-.074-.115-.137-.166-.0977-.085-.2411-.159-.4302-.222-.1891-.066-.394-.099-.6146-.099-.4097 0-.7217.097-.936.293-.2143.192-.3214.463-.3214.813 0 .214.0378.398.1134.553.0788.151.1923.29.3404.416.1481.123.3293.241.5436.354.2175.114.4649.237.7422.369.2553.12.5043.249.7469.388.2458.135.4617.29.6477.463.189.173.3419.374.4585.6.1166.224.1749.484.1749.78Zm3.4368-3.016c-.3404 0-.6225.119-.8462.355-.2238.233-.3687.607-.4349 1.12h2.3778c.0031-.034.0063-.069.0094-.104.0032-.037.0048-.077.0048-.118 0-.369-.0961-.67-.2884-.903-.1922-.233-.4664-.35-.8225-.35Zm2.1036 3.811c-.1261.381-.3719.691-.7375.931-.3655.236-.8193.354-1.3614.354-.4034 0-.7564-.067-1.0589-.203-.2994-.138-.5484-.329-.7469-.572-.1954-.242-.342-.532-.4397-.87-.0977-.337-.1465-.704-.1465-1.101 0-.451.0599-.856.1796-1.215.1198-.359.29-.662.5106-.908.2206-.249.4869-.438.7989-.567.312-.132.6586-.198 1.04-.198.2931 0 .561.041.8036.122.2427.079.4507.196.624.35.1734.155.3073.349.4018.582.0977.233.1466.502.1466.808 0 .088-.0047.195-.0142.322-.0095.122-.0221.233-.0378.33h-3.3847v.147c0 .425.0409.785.1229 1.078.0819.29.1938.523.3356.699.1418.174.3104.298.5058.374.1954.076.4066.113.6335.113.3088 0 .594-.069.8556-.208.2647-.138.4743-.326.6287-.562l.3404.194Zm3.4697-3.811c-.34 0-.623.119-.846.355-.224.233-.369.607-.435 1.12h2.378c.003-.034.006-.069.009-.104.003-.037.005-.077.005-.118 0-.369-.096-.67-.289-.903-.192-.233-.466-.35-.822-.35Zm2.104 3.811c-.127.381-.372.691-.738.931-.365.236-.819.354-1.361.354-.404 0-.757-.067-1.059-.203-.3-.138-.549-.329-.747-.572-.196-.242-.342-.532-.44-.87-.098-.337-.146-.704-.146-1.101 0-.451.06-.856.179-1.215.12-.359.29-.662.511-.908.22-.249.487-.438.799-.567.312-.132.658-.198 1.04-.198.293 0 .561.041.803.122.243.079.451.196.624.35.174.155.308.349.402.582.098.233.147.502.147.808 0 .088-.005.195-.014.322-.01.122-.023.233-.038.33h-3.385v.147c0 .425.041.785.123 1.078.082.29.194.523.336.699.141.174.31.298.505.374.196.076.407.113.634.113.309 0 .594-.069.855-.208.265-.138.475-.326.629-.562l.341.194ZM149.664 171.123c-.508 0-.955-.085-1.343-.255-.384-.174-.704-.42-.96-.738-.255-.318-.447-.706-.576-1.163-.129-.46-.194-.974-.194-1.541 0-.63.079-1.19.236-1.678.161-.492.385-.903.672-1.234.289-.331.639-.583 1.049-.756.41-.174.865-.26 1.366-.26.508 0 .954.086 1.338.26.388.17.708.414.96.733.255.315.447.701.576 1.158.13.457.194.969.194 1.536 0 .624-.079 1.182-.236 1.674-.155.488-.377.899-.667 1.233-.287.334-.635.59-1.044.766-.41.177-.867.265-1.371.265Zm.132-7.067c-.643 0-1.144.269-1.503.808-.36.536-.539 1.354-.539 2.453 0 1.059.167 1.865.501 2.416.337.552.841.827 1.513.827.643 0 1.144-.271 1.503-.813.359-.542.539-1.364.539-2.467 0-1.056-.167-1.857-.501-2.402-.334-.548-.839-.822-1.513-.822Zm7.319 6.476V171h-3.073v-.482l.582-.09c.082-.013.145-.043.189-.09.047-.05.071-.116.071-.198v-3.503c0-.095-.021-.169-.062-.222-.037-.054-.102-.087-.193-.1l-.653-.094v-.464c.249-.075.519-.135.809-.179.289-.044.557-.068.803-.071l.161.151.109.865c.097-.135.214-.266.349-.392.136-.126.281-.236.435-.331.155-.098.317-.175.487-.232.174-.06.345-.089.516-.089.097 0 .209.011.335.033.126.022.229.053.307.094.023.265.023.564 0 .898-.018.334-.056.639-.113.913h-.496l-.137-.733c-.023-.104-.059-.176-.109-.217-.047-.041-.118-.062-.213-.062-.221-.003-.447.041-.681.132-.23.092-.444.237-.643.435v3.168c0 .085.023.152.067.203.047.047.113.076.198.085l.955.104Zm4.433-.113c.236 0 .458-.04.666-.119.208-.078.393-.184.553-.316v-3.716c-.113-.066-.261-.123-.444-.17-.18-.047-.369-.071-.567-.071-.221 0-.43.038-.629.113-.195.073-.366.196-.511.369-.144.173-.26.407-.345.7-.085.293-.127.657-.127 1.092 0 .409.038.751.113 1.026.076.271.177.488.303.652.129.161.279.274.449.34.17.066.35.1.539.1Zm2.136.661c-.255 0-.452-.066-.59-.198-.136-.133-.229-.298-.279-.497-.183.202-.412.374-.686.516-.271.138-.588.208-.95.208-.287 0-.561-.051-.823-.152-.258-.1-.483-.256-.676-.468-.192-.214-.345-.49-.458-.827-.114-.337-.17-.739-.17-1.205 0-.501.066-.939.198-1.314.136-.375.323-.686.563-.932.243-.246.534-.428.874-.548.341-.123.716-.184 1.125-.184.177 0 .347.011.511.033.164.022.312.048.444.08v-2c0-.085-.023-.151-.071-.198-.044-.047-.105-.077-.184-.09l-.718-.099v-.435c.135-.041.282-.077.439-.109.158-.031.317-.058.478-.08.164-.022.324-.04.482-.052.157-.016.304-.025.439-.029l.147.152v7.455c0 .11.025.187.076.231.053.041.119.066.198.076l.544.047v.449c-.107.035-.249.071-.426.109-.176.041-.338.061-.487.061Zm4.157-5.063c-.341 0-.623.119-.846.355-.224.233-.369.607-.435 1.12h2.377c.004-.034.007-.069.01-.104.003-.037.005-.077.005-.118 0-.369-.097-.67-.289-.903-.192-.233-.466-.35-.822-.35Zm2.103 3.811c-.126.381-.372.691-.737.931-.366.236-.82.354-1.362.354-.403 0-.756-.067-1.058-.203-.3-.138-.549-.329-.747-.572-.196-.242-.342-.532-.44-.87-.098-.337-.147-.704-.147-1.101 0-.451.06-.856.18-1.215.12-.359.29-.662.511-.908.22-.249.487-.438.799-.567.312-.132.658-.198 1.04-.198.293 0 .56.041.803.122.243.079.451.196.624.35.173.155.307.349.402.582.098.233.147.502.147.808 0 .088-.005.195-.015.322-.009.122-.022.233-.037.33h-3.385v.147c0 .425.041.785.123 1.078.082.29.194.523.335.699.142.174.311.298.506.374.196.076.407.113.634.113.308 0 .594-.069.855-.208.265-.138.475-.326.629-.562l.34.194Zm4.094.704V171h-3.073v-.482l.582-.09c.082-.013.145-.043.189-.09.047-.05.071-.116.071-.198v-3.503c0-.095-.021-.169-.062-.222-.038-.054-.102-.087-.194-.1l-.652-.094v-.464c.249-.075.518-.135.808-.179.29-.044.558-.068.804-.071l.161.151.108.865c.098-.135.215-.266.35-.392.136-.126.281-.236.435-.331.155-.098.317-.175.487-.232.173-.06.345-.089.515-.089.098 0 .21.011.336.033.126.022.229.053.307.094.022.265.022.564 0 .898-.019.334-.056.639-.113.913h-.497l-.137-.733c-.022-.104-.058-.176-.108-.217-.048-.041-.119-.062-.213-.062-.221-.003-.448.041-.681.132-.23.092-.444.237-.643.435v3.168c0 .085.022.152.066.203.048.047.114.076.199.085l.955.104Z"/>
  </g>
</svg>
